<svg width="64" height="64" xmlns="http://www.w3.org/2000/svg"><path style="fill:#6080c0;fill-opacity:1;stroke-width:32.0013;stroke-linecap:round;stroke-linejoin:round;paint-order:stroke fill markers" d="M32 0A32 32 0 0 0 0 32a32 32 0 0 0 32 32 32 32 0 0 0 32-32A32 32 0 0 0 32 0z"/><path style="fill:#ffffe2;fill-opacity:1;stroke-width:32.0013;stroke-linecap:round;stroke-linejoin:round;paint-order:stroke fill markers" d="M25.984375 16.001953c-2.949885.509379-5.820978 1.400317-8.541016 2.650391-.02352.01-.04333.02703-.05664.04883-5.44182 8.131164-6.932542 16.061506-6.201172 23.892578.0038.03928.0236.07528.05469.09961 3.168801 2.347239 6.713382 4.139013 10.482422 5.298829.05483.01658.114161-.0029.148438-.04883a24.88060484 24.88060484 0 0 0 2.142578-3.488281c.03513-.07052.0015-.155937-.07227-.183594a22.92498 22.92498 0 0 1-3.27539-1.558593c-.08173-.04908-.08785-.165269-.01172-.222657.219739-.163984.440491-.335942.650391-.509765.0376-.0315.08977-.03906.134765-.01953 6.870124 3.137019 14.308704 3.137019 21.097656 0 .04517-.02088.0983-.01405.136719.01758.209901.173003.430771.346914.65625.511718.07613.05739.07001.173578-.01172.222657-1.047224.611014-2.14423 1.132401-3.279297 1.558593-.07455.02797-.108261.11452-.07227.185547a27.93641953 27.93641953 0 0 0 2.142578 3.486328c.03313.04746.09318.068.148437.05078 3.773988-1.156494 7.322965-2.948487 10.494141-5.298829.03229-.02267.053-.05837.05664-.09766.875676-9.055215-1.466243-16.921916-6.207032-23.894531-.01103-.02262-.02971-.04061-.05273-.05078-2.721677-1.249346-5.593965-2.140248-8.544922-2.650391-.05533-.011-.11141.01507-.138672.06445-.391395.710794-.746665 1.440889-1.064453 2.1875-3.180979-.48312-6.416677-.48312-9.597656 0-.319507-.748482-.680081-1.47876-1.080078-2.1875-.02832-.04824-.08354-.0739-.138672-.06445zm-.945313 13.363281c2.117858 0 3.805925 1.91501 3.771485 4.230469.0016 2.331858-1.670026 4.230469-3.771485 4.230469-2.068662 0-3.771484-1.898611-3.771484-4.230469 0-2.331858 1.670845-4.230469 3.771484-4.230469zm13.949219 0c2.117859 0 3.805925 1.91501 3.771485 4.230469.000818 2.331858-1.653626 4.230469-3.771485 4.230469-2.068662 0-3.771484-1.898611-3.771484-4.230469 0-2.331858 1.670845-4.230469 3.771484-4.230469z"/></svg>