<?xml version="1.0"?>
<svg width="203.20032" height="203.20032" xmlns="http://www.w3.org/2000/svg" xmlns:svg="http://www.w3.org/2000/svg" version="1.1">
 <defs id="defs8">
  <path d="m-313.05,420.14l228.61,0l0,90.62l-228.61,0l0,-90.62z" id="f"/>
  <path d="m-616.6,735.39l502.05,0l0,156.98l-502.05,0l0,-156.98z" id="e"/>
  <path d="m-724.08,907.92l647.71,0l0,257.39l-647.71,0l0,-257.39z" id="d"/>
  <path d="m-472,818l436,0l0,146l-436,0l0,-146z" id="c"/>
  <path d="m-565.68,-287.08l397.39,0l0,84.85l-397.39,0l0,-84.85z" id="b"/>
  <path d="m-941.87,837.21l956.01,0l0,410.13l-956.01,0l0,-410.13z" id="a"/>
 </defs>
 <g class="layer">
  <title>Layer 1</title>
  <path d="m39.75,64.95l20.53,11.85l0,-23.71l-20.53,11.86z" fill="#ff002f" id="path10" stroke="#ffffff" stroke-linecap="round" stroke-linejoin="round" stroke-miterlimit="4" stroke-width="0.53"/>
  <path d="m60.27,53.09l20.53,11.86l0,-23.71l-20.53,11.85z" fill="#c10061" id="path12" stroke="#ffffff" stroke-linecap="round" stroke-linejoin="round" stroke-miterlimit="4" stroke-width="0.53"/>
  <path d="m60.27,76.8l20.53,11.85l0,-23.7l-20.53,11.85z" fill="#e6004a" id="path14" stroke="#ffffff" stroke-linecap="round" stroke-linejoin="round" stroke-miterlimit="4" stroke-width="0.53"/>
  <path d="m80.8,41.24l20.53,11.85l0,-23.7l-20.53,11.85z" fill="#780078" id="path16" stroke="#ffffff" stroke-linecap="round" stroke-linejoin="round" stroke-miterlimit="4" stroke-width="0.53"/>
  <path d="m80.8,64.95l20.53,11.85l0,-23.71l-20.53,11.86z" fill="#9e006e" id="path18" stroke="#ffffff" stroke-linecap="round" stroke-linejoin="round" stroke-miterlimit="4" stroke-width="0.53"/>
  <path d="m80.8,88.65l20.53,11.85l0,-23.7l-20.53,11.85z" fill="#c13a57" id="path20" stroke="#ffffff" stroke-linecap="round" stroke-linejoin="round" stroke-miterlimit="4" stroke-width="0.53"/>
  <path d="m80.8,64.95l-20.52,-11.86l0,23.71l20.52,-11.85z" display="inline" fill="#e6004a" id="path22" stroke="#ffffff" stroke-linecap="round" stroke-linejoin="round" stroke-miterlimit="4" stroke-width="0.53"/>
  <path d="m101.33,76.8l-20.53,-11.85l0,23.7l20.53,-11.85z" display="inline" fill="#c1295c" id="path24" stroke="#ffffff" stroke-linecap="round" stroke-linejoin="round" stroke-miterlimit="4" stroke-width="0.53"/>
  <path d="m80.8,41.24l0,0l0,23.71l20.53,-11.86l0,0l-20.53,-11.85z" display="inline" fill="#9e006e" id="path26" stroke="#ffffff" stroke-linecap="round" stroke-linejoin="round" stroke-miterlimit="4" stroke-width="0.53"/>
  <path d="m162.92,64.95l-20.53,11.85l0,-23.71l20.53,11.86z" fill="#2a2f78" id="path28" stroke="#ffffff" stroke-linecap="round" stroke-linejoin="round" stroke-miterlimit="4" stroke-width="0.53"/>
  <path d="m142.39,53.09l-20.53,11.86l0,-23.71l20.53,11.85z" fill="#4f2578" id="path30" stroke="#ffffff" stroke-linecap="round" stroke-linejoin="round" stroke-miterlimit="4" stroke-width="0.53"/>
  <path d="m142.39,76.8l-20.53,11.85l0,-23.7l20.53,11.85z" fill="#3e2b78" id="path32" stroke="#ffffff" stroke-linecap="round" stroke-linejoin="round" stroke-miterlimit="4" stroke-width="0.53"/>
  <path d="m121.86,41.24l-20.53,11.85l0,-23.7l20.53,11.85z" fill="#780078" id="path34" stroke="#ffffff" stroke-linecap="round" stroke-linejoin="round" stroke-miterlimit="4" stroke-width="0.53"/>
  <path d="m121.86,64.95l-20.53,11.85l0,-23.71l20.53,11.86z" fill="#681778" id="path36" stroke="#ffffff" stroke-linecap="round" stroke-linejoin="round" stroke-miterlimit="4" stroke-width="0.53"/>
  <path d="m121.86,88.65l-20.53,11.85l0,-23.7l20.53,11.85z" fill="#9b4e5d" id="path38" stroke="#ffffff" stroke-linecap="round" stroke-linejoin="round" stroke-miterlimit="4" stroke-width="0.53"/>
  <path d="m121.86,64.95l20.53,-11.86l0,23.71l-20.53,-11.85z" display="inline" fill="#3e2b78" id="path40" stroke="#ffffff" stroke-linecap="round" stroke-linejoin="round" stroke-miterlimit="4" stroke-width="0.53"/>
  <path d="m101.33,76.8l20.53,-11.85l0,23.7l-20.53,-11.85z" display="inline" fill="#813f6a" id="path42" stroke="#ffffff" stroke-linecap="round" stroke-linejoin="round" stroke-miterlimit="4" stroke-width="0.53"/>
  <path d="m121.86,41.24l0,0l0,23.71l-20.53,-11.86l0,0l20.53,-11.85z" display="inline" fill="#681778" id="path44" stroke="#ffffff" stroke-linecap="round" stroke-linejoin="round" stroke-miterlimit="4" stroke-width="0.53"/>
  <path d="m101.33,100.5l20.53,11.85l0,-23.7l-20.53,11.85z" fill="#906159" id="path46" stroke="#ffffff" stroke-linecap="round" stroke-linejoin="round" stroke-miterlimit="4" stroke-width="0.53"/>
  <path d="m121.86,88.65l20.53,11.85l0,-23.7l-20.53,11.85z" fill="#274172" id="path48" stroke="#ffffff" stroke-linecap="round" stroke-linejoin="round" stroke-miterlimit="4" stroke-width="0.53"/>
  <path d="m121.86,112.35l20.53,11.86l0,-23.71l-20.53,11.85z" fill="#137252" id="path50" stroke="#ffffff" stroke-linecap="round" stroke-linejoin="round" stroke-miterlimit="4" stroke-width="0.53"/>
  <path d="m142.39,76.8l20.53,11.85l0,-23.71l-20.53,11.86z" fill="#2a2f78" id="path52" stroke="#ffffff" stroke-linecap="round" stroke-linejoin="round" stroke-miterlimit="4" stroke-width="0.53"/>
  <path d="m142.39,100.5l20.53,11.85l0,-23.7l-20.53,11.85z" fill="#22546a" id="path54" stroke="#ffffff" stroke-linecap="round" stroke-linejoin="round" stroke-miterlimit="4" stroke-width="0.53"/>
  <path d="m142.39,124.21l20.53,11.85l0,-23.71l-20.53,11.86z" fill="#008339" id="path56" stroke="#ffffff" stroke-linecap="round" stroke-linejoin="round" stroke-miterlimit="4" stroke-width="0.53"/>
  <path d="m142.39,100.5l-20.53,-11.85l0,23.7l20.53,-11.85z" display="inline" fill="#625e62" id="path58" stroke="#ffffff" stroke-linecap="round" stroke-linejoin="round" stroke-miterlimit="4" stroke-width="0.53"/>
  <path d="m162.92,112.35l-20.53,-11.85l0,23.71l20.53,-11.86z" display="inline" fill="#137252" id="path60" stroke="#ffffff" stroke-linecap="round" stroke-linejoin="round" stroke-miterlimit="4" stroke-width="0.53"/>
  <path d="m142.39,76.8l0,0l0,23.7l20.53,-11.85l0,0l-20.53,-11.85z" display="inline" fill="#274172" id="path62" stroke="#ffffff" stroke-linecap="round" stroke-linejoin="round" stroke-miterlimit="4" stroke-width="0.53"/>
  <path d="m39.75,136.06l20.53,11.85l0,-23.7l-20.53,11.85z" fill="#ff4200" id="path64" stroke="#ffffff" stroke-linecap="round" stroke-linejoin="round" stroke-miterlimit="4" stroke-width="0.53"/>
  <path d="m60.27,124.21l20.53,11.85l0,-23.71l-20.53,11.86z" fill="#ff5300" id="path66" stroke="#ffffff" stroke-linecap="round" stroke-linejoin="round" stroke-miterlimit="4" stroke-width="0.53"/>
  <path d="m60.27,147.91l20.53,11.85l0,-23.7l-20.53,11.85z" fill="#ff6400" id="path68" stroke="#ffffff" stroke-linecap="round" stroke-linejoin="round" stroke-miterlimit="4" stroke-width="0.53"/>
  <path d="m80.8,112.35l20.53,11.86l0,-23.71l-20.53,11.85z" fill="#c95d45" id="path70" stroke="#ffffff" stroke-linecap="round" stroke-linejoin="round" stroke-miterlimit="4" stroke-width="0.53"/>
  <path d="m80.8,136.06l20.53,11.85l0,-23.7l-20.53,11.85z" fill="#ff9a00" id="path72" stroke="#ffffff" stroke-linecap="round" stroke-linejoin="round" stroke-miterlimit="4" stroke-width="0.53"/>
  <path d="m80.8,159.76l20.53,11.85l0,-23.7l-20.53,11.85z" fill="#ffb900" id="path74" stroke="#ffffff" stroke-linecap="round" stroke-linejoin="round" stroke-miterlimit="4" stroke-width="0.53"/>
  <path d="m80.8,136.06l-20.52,-11.85l0,23.7l20.52,-11.85z" display="inline" fill="#ff5300" id="path76" stroke="#ffffff" stroke-linecap="round" stroke-linejoin="round" stroke-miterlimit="4" stroke-width="0.53"/>
  <path d="m101.33,147.91l-20.53,-11.85l0,23.7l20.53,-11.85z" display="inline" fill="#ff9a00" id="path78" stroke="#ffffff" stroke-linecap="round" stroke-linejoin="round" stroke-miterlimit="4" stroke-width="0.53"/>
  <path d="m80.8,112.35l0,0l0,23.71l20.53,-11.85l0,0l-20.53,-11.86z" display="inline" fill="#e26331" id="path80" stroke="#ffffff" stroke-linecap="round" stroke-linejoin="round" stroke-miterlimit="4" stroke-width="0.53"/>
  <path d="m162.92,136.06l-20.53,11.85l0,-23.7l20.53,11.85z" fill="#008339" id="path82" stroke="#ffffff" stroke-linecap="round" stroke-linejoin="round" stroke-miterlimit="4" stroke-width="0.53"/>
  <path d="m142.39,124.21l-20.53,11.85l0,-23.71l20.53,11.86z" fill="#468737" id="path84" stroke="#ffffff" stroke-linecap="round" stroke-linejoin="round" stroke-miterlimit="4" stroke-width="0.53"/>
  <path d="m142.39,147.91l-20.53,11.85l0,-23.7l20.53,11.85z" fill="#93952f" id="path86" stroke="#ffffff" stroke-linecap="round" stroke-linejoin="round" stroke-miterlimit="4" stroke-width="0.53"/>
  <path d="m121.86,112.35l-20.53,11.86l0,-23.71l20.53,11.85z" fill="#a7694e" id="path88" stroke="#ffffff" stroke-linecap="round" stroke-linejoin="round" stroke-miterlimit="4" stroke-width="0.53"/>
  <path d="m121.86,136.06l-20.53,11.85l0,-23.7l20.53,11.85z" fill="#d7aa1e" id="path90" stroke="#ffffff" stroke-linecap="round" stroke-linejoin="round" stroke-miterlimit="4" stroke-width="0.53"/>
  <path d="m121.86,159.76l-20.53,11.85l0,-23.7l20.53,11.85z" fill="#ffb900" id="path92" stroke="#ffffff" stroke-linecap="round" stroke-linejoin="round" stroke-miterlimit="4" stroke-width="0.53"/>
  <path d="m121.86,136.06l20.53,-11.85l0,23.7l-20.53,-11.85z" display="inline" fill="#468737" id="path94" stroke="#ffffff" stroke-linecap="round" stroke-linejoin="round" stroke-miterlimit="4" stroke-width="0.53"/>
  <path d="m101.33,147.91l20.53,-11.85l0,23.7l-20.53,-11.85z" display="inline" fill="#d7aa1e" id="path96" stroke="#ffffff" stroke-linecap="round" stroke-linejoin="round" stroke-miterlimit="4" stroke-width="0.53"/>
  <path d="m121.86,112.35l0,0l0,23.71l-20.53,-11.85l0,0l20.53,-11.86z" display="inline" fill="#a37d43" id="path98" stroke="#ffffff" stroke-linecap="round" stroke-linejoin="round" stroke-miterlimit="4" stroke-width="0.53"/>
  <path d="m101.33,100.5l-20.53,11.85l0,-23.7l20.53,11.85z" fill="#d2424c" id="path100" stroke="#ffffff" stroke-linecap="round" stroke-linejoin="round" stroke-miterlimit="4" stroke-width="0.53"/>
  <path d="m80.8,88.65l-20.52,11.85l0,-23.7l20.52,11.85z" fill="#ff192a" id="path102" stroke="#ffffff" stroke-linecap="round" stroke-linejoin="round" stroke-miterlimit="4" stroke-width="0.53"/>
  <path d="m80.8,112.35l-20.52,11.86l0,-23.71l20.52,11.85z" fill="#ff3815" id="path104" stroke="#ffffff" stroke-linecap="round" stroke-linejoin="round" stroke-miterlimit="4" stroke-width="0.53"/>
  <path d="m60.27,76.8l-20.52,11.85l0,-23.71l20.52,11.86z" fill="#ff002f" id="path106" stroke="#ffffff" stroke-linecap="round" stroke-linejoin="round" stroke-miterlimit="4" stroke-width="0.53"/>
  <path d="m60.27,100.5l-20.52,11.85l0,-23.7l20.52,11.85z" fill="#ff2923" id="path108" stroke="#ffffff" stroke-linecap="round" stroke-linejoin="round" stroke-miterlimit="4" stroke-width="0.53"/>
  <path d="m60.27,124.21l-20.52,11.85l0,-23.71l20.52,11.86z" fill="#ff4200" id="path110" stroke="#ffffff" stroke-linecap="round" stroke-linejoin="round" stroke-miterlimit="4" stroke-width="0.53"/>
  <path d="m60.27,100.5l20.53,-11.85l0,23.7l-20.53,-11.85z" display="inline" fill="#ea373b" id="path112" stroke="#ffffff" stroke-linecap="round" stroke-linejoin="round" stroke-miterlimit="4" stroke-width="0.53"/>
  <path d="m39.75,112.35l20.53,-11.85l0,23.71l-20.53,-11.86z" display="inline" fill="#ff3815" id="path114" stroke="#ffffff" stroke-linecap="round" stroke-linejoin="round" stroke-miterlimit="4" stroke-width="0.53"/>
  <path d="m60.27,76.8l0,0l0,23.7l-20.52,-11.85l0,0l20.52,-11.85z" display="inline" fill="#ff192a" id="path116" stroke="#ffffff" stroke-linecap="round" stroke-linejoin="round" stroke-miterlimit="4" stroke-width="0.53"/>
  <path d="m80.8,41.24l-20.53,11.85l0,-23.7l20.53,11.85zm102.64,59.26l-20.52,11.85l0,-23.7l20.52,11.85zm-61.58,-59.26l20.53,11.85l0,-23.7l-20.53,11.85zm-102.64,59.26l20.53,11.85l0,-23.7l-20.53,11.85zm61.58,59.26l-20.53,11.85l0,-23.7l20.53,11.85zm41.06,0l20.53,11.85l0,-23.7l-20.53,11.85z" fill="none" id="path118" stroke="#ffffff" stroke-linecap="round" stroke-linejoin="round" stroke-miterlimit="4" stroke-width="0.53"/>
  <path d="m191.43,85.76q-0.52,0 -0.95,-0.18q-0.44,-0.18 -0.76,-0.5q-0.4,-0.39 -0.6,-0.94q-0.19,-0.54 -0.19,-1.37l0,-1.02l-2.87,0l0,-1.02l7.69,0l0,2.09q0,0.69 -0.12,1.17q-0.11,0.48 -0.36,0.85q-0.29,0.44 -0.73,0.68q-0.44,0.24 -1.11,0.24zm-0.03,-1.06q0.4,0 0.69,-0.14q0.3,-0.14 0.48,-0.43q0.16,-0.24 0.23,-0.57q0.07,-0.31 0.07,-0.8l0,-1.01l-3.07,0l0,0.86q0,0.62 0.11,1.01q0.11,0.39 0.35,0.63q0.25,0.24 0.53,0.34q0.27,0.11 0.61,0.11zm-0.63,5.93l0,-0.05q0.05,-0.21 0.07,-0.42q0.03,-0.2 0.03,-0.48q0,-0.45 -0.2,-0.87q-0.2,-0.42 -0.52,-0.81l-4.09,0l0,-0.97l5.77,0l0,0.97l-0.85,0q0.46,0.58 0.65,1.02q0.2,0.45 0.2,0.91q0,0.25 -0.02,0.36q-0.01,0.12 -0.04,0.34l-1,0zm-1.83,5.84q-1.41,0 -2.23,-0.73q-0.81,-0.72 -0.81,-1.93q0,-1.23 0.81,-1.95q0.82,-0.72 2.23,-0.72q1.41,0 2.23,0.72q0.82,0.72 0.82,1.95q0,1.21 -0.82,1.93q-0.82,0.73 -2.23,0.73zm0,-1q1.12,0 1.66,-0.44q0.55,-0.44 0.55,-1.22q0,-0.79 -0.55,-1.23q-0.54,-0.44 -1.66,-0.44q-1.08,0 -1.65,0.44q-0.56,0.44 -0.56,1.23q0,0.77 0.56,1.21q0.56,0.45 1.65,0.45zm0.07,7.58q-0.7,0 -1.28,-0.2q-0.58,-0.2 -0.99,-0.57q-0.38,-0.34 -0.59,-0.8q-0.21,-0.46 -0.21,-0.98q0,-0.45 0.1,-0.82q0.1,-0.36 0.31,-0.74l-2.42,0l0,-0.97l7.9,0l0,0.97l-0.61,0q0.33,0.39 0.55,0.87q0.22,0.49 0.22,1.03q0,1.05 -0.79,1.63q-0.79,0.58 -2.19,0.58zm-0.02,-1q1.04,0 1.56,-0.36q0.51,-0.35 0.51,-1.09q0,-0.42 -0.18,-0.85q-0.18,-0.42 -0.47,-0.81l-3.27,0q-0.19,0.42 -0.26,0.71q-0.06,0.3 -0.06,0.68q0,0.81 0.54,1.26q0.55,0.46 1.63,0.46zm-0.15,7.35l0,-4.26q-0.53,0 -0.93,0.16q-0.39,0.16 -0.64,0.44q-0.25,0.27 -0.38,0.64q-0.12,0.37 -0.12,0.82q0,0.59 0.23,1.18q0.24,0.6 0.47,0.85l0,0.05l-1.06,0q-0.21,-0.49 -0.35,-1q-0.14,-0.51 -0.14,-1.07q0,-1.44 0.78,-2.25q0.78,-0.8 2.21,-0.8q1.42,0 2.25,0.77q0.83,0.77 0.83,2.03q0,1.17 -0.68,1.8q-0.68,0.64 -1.94,0.64l-0.53,0zm0.75,-0.95q0.76,0 1.18,-0.39q0.42,-0.37 0.42,-1.15q0,-0.78 -0.46,-1.24q-0.46,-0.46 -1.14,-0.53l0,3.31zm1.18,6.02l0,-0.05q0.05,-0.22 0.07,-0.42q0.03,-0.21 0.03,-0.48q0,-0.45 -0.2,-0.87q-0.2,-0.42 -0.51,-0.81l-4.1,0l0,-0.97l5.77,0l0,0.97l-0.85,0q0.46,0.58 0.65,1.02q0.2,0.44 0.2,0.9q0,0.26 -0.02,0.37q-0.01,0.11 -0.04,0.34l-1,0zm-4.66,3.91q-0.07,-0.27 -0.12,-0.6q-0.05,-0.32 -0.05,-0.57q0,-0.88 0.48,-1.34q0.47,-0.46 1.52,-0.46l3.07,0l0,-0.66l0.82,0l0,0.66l1.66,0l0,0.97l-1.66,0l0,2l-0.82,0l0,-2l-2.63,0q-0.45,0 -0.71,0.02q-0.25,0.02 -0.48,0.14q-0.2,0.12 -0.3,0.31q-0.09,0.21 -0.09,0.61q0,0.24 0.06,0.5q0.08,0.26 0.12,0.37l0,0.05l-0.87,0zm5.72,6.12l-7.9,-3.37l0,-1.04l2.41,1.07l5.49,-2.3l0,1.06l-4.28,1.77l4.28,1.79l0,1.02z" fill="#ffffff" id="path124" stroke-width="0.26"/>
  <path d="m-284.57,442.13q0,3.96 -1.74,7.18q-1.72,3.23 -4.59,5q-1.99,1.23 -4.45,1.78q-2.44,0.55 -6.45,0.55l-7.34,0l0,-29.08l7.26,0q4.26,0 6.76,0.62q2.52,0.61 4.26,1.68q2.97,1.86 4.63,4.94q1.66,3.09 1.66,7.33zm-4.05,-0.06q0,-3.42 -1.19,-5.76q-1.19,-2.35 -3.55,-3.7q-1.72,-0.97 -3.65,-1.34q-1.94,-0.39 -4.63,-0.39l-3.64,0l0,22.44l3.64,0q2.79,0 4.86,-0.41q2.09,-0.41 3.83,-1.53q2.17,-1.38 3.24,-3.65q1.09,-2.26 1.09,-5.66zm28.27,4.04l-16.08,0q0,2.01 0.61,3.52q0.6,1.48 1.66,2.44q1.01,0.93 2.4,1.4q1.41,0.47 3.09,0.47q2.22,0 4.47,-0.88q2.26,-0.9 3.22,-1.75l0.2,0l0,4q-1.86,0.78 -3.79,1.31q-1.94,0.53 -4.06,0.53q-5.43,0 -8.48,-2.93q-3.05,-2.95 -3.05,-8.36q0,-5.36 2.91,-8.5q2.93,-3.14 7.7,-3.14q4.41,0 6.79,2.57q2.41,2.58 2.41,7.33l0,1.99zm-3.58,-2.81q-0.02,-2.89 -1.46,-4.48q-1.43,-1.58 -4.36,-1.58q-2.95,0 -4.7,1.74q-1.74,1.74 -1.98,4.32l12.5,0zm40.98,13.34l-3.67,0l0,-12.42q0,-1.41 -0.14,-2.72q-0.12,-1.31 -0.53,-2.09q-0.45,-0.84 -1.29,-1.27q-0.84,-0.43 -2.42,-0.43q-1.54,0 -3.08,0.78q-1.55,0.76 -3.09,1.96q0.06,0.45 0.1,1.05q0.04,0.59 0.04,1.17l0,13.97l-3.67,0l0,-12.42q0,-1.45 -0.14,-2.74q-0.12,-1.31 -0.53,-2.09q-0.45,-0.84 -1.29,-1.25q-0.84,-0.43 -2.42,-0.43q-1.5,0 -3.03,0.74q-1.5,0.75 -3,1.9l0,16.29l-3.68,0l0,-21.82l3.68,0l0,2.42q1.71,-1.42 3.41,-2.22q1.72,-0.8 3.66,-0.8q2.22,0 3.77,0.93q1.56,0.94 2.32,2.6q2.23,-1.87 4.06,-2.69q1.84,-0.84 3.93,-0.84q3.59,0 5.29,2.18q1.72,2.17 1.72,6.08l0,14.16zm25.66,-10.9q0,5.33 -2.73,8.42q-2.74,3.08 -7.33,3.08q-4.62,0 -7.36,-3.08q-2.71,-3.09 -2.71,-8.42q0,-5.33 2.71,-8.42q2.74,-3.1 7.36,-3.1q4.59,0 7.33,3.1q2.73,3.09 2.73,8.42zm-3.79,0q0,-4.24 -1.66,-6.29q-1.66,-2.07 -4.61,-2.07q-2.98,0 -4.64,2.07q-1.64,2.05 -1.64,6.29q0,4.1 1.66,6.23q1.66,2.11 4.62,2.11q2.93,0 4.59,-2.09q1.68,-2.11 1.68,-6.25zm25.61,9.53q-1.84,0.88 -3.5,1.37q-1.64,0.49 -3.49,0.49q-2.37,0 -4.34,-0.69q-1.97,-0.7 -3.38,-2.11q-1.42,-1.4 -2.2,-3.55q-0.79,-2.15 -0.79,-5.02q0,-5.35 2.93,-8.4q2.95,-3.05 7.78,-3.05q1.87,0 3.67,0.53q1.82,0.53 3.32,1.29l0,4.08l-0.2,0q-1.68,-1.31 -3.47,-2.01q-1.78,-0.7 -3.48,-0.7q-3.12,0 -4.94,2.11q-1.8,2.09 -1.8,6.15q0,3.94 1.76,6.07q1.78,2.11 4.98,2.11q1.11,0 2.27,-0.29q1.15,-0.29 2.07,-0.76q0.8,-0.41 1.5,-0.86q0.7,-0.47 1.11,-0.8l0.2,0l0,4.04zm18.32,-16.45l-0.2,0q-0.82,-0.19 -1.6,-0.27q-0.76,-0.1 -1.81,-0.1q-1.7,0 -3.28,0.77q-1.59,0.74 -3.05,1.93l0,15.49l-3.67,0l0,-21.82l3.67,0l0,3.22q2.19,-1.75 3.85,-2.48q1.68,-0.74 3.41,-0.74q0.96,0 1.39,0.06q0.43,0.04 1.29,0.18l0,3.76zm19.71,17.82l-3.66,0l0,-2.33q-0.48,0.34 -1.32,0.94q-0.82,0.59 -1.6,0.94q-0.92,0.45 -2.11,0.74q-1.2,0.31 -2.8,0.31q-2.95,0 -5,-1.95q-2.05,-1.95 -2.05,-4.98q0,-2.48 1.06,-4q1.07,-1.55 3.04,-2.43q1.99,-0.88 4.79,-1.19q2.79,-0.31 5.99,-0.47l0,-0.56q0,-1.25 -0.45,-2.07q-0.43,-0.82 -1.25,-1.29q-0.78,-0.45 -1.87,-0.61q-1.09,-0.15 -2.29,-0.15q-1.44,0 -3.22,0.39q-1.78,0.37 -3.67,1.09l-0.2,0l0,-3.73q1.08,-0.29 3.11,-0.64q2.03,-0.36 4,-0.36q2.31,0 4.01,0.39q1.72,0.38 2.97,1.29q1.23,0.9 1.87,2.33q0.65,1.42 0.65,3.53l0,14.81zm-3.66,-5.37l0,-6.08q-1.68,0.1 -3.96,0.29q-2.27,0.2 -3.59,0.57q-1.59,0.45 -2.56,1.41q-0.98,0.94 -0.98,2.6q0,1.87 1.13,2.83q1.14,0.93 3.46,0.93q1.93,0 3.54,-0.74q1.6,-0.76 2.96,-1.81zm26.86,4q-1.84,0.88 -3.5,1.37q-1.64,0.49 -3.49,0.49q-2.37,0 -4.34,-0.69q-1.97,-0.7 -3.38,-2.11q-1.42,-1.4 -2.2,-3.55q-0.79,-2.15 -0.79,-5.02q0,-5.35 2.93,-8.4q2.95,-3.05 7.78,-3.05q1.87,0 3.67,0.53q1.82,0.53 3.32,1.29l0,4.08l-0.2,0q-1.68,-1.31 -3.47,-2.01q-1.78,-0.7 -3.48,-0.7q-3.12,0 -4.94,2.11q-1.8,2.09 -1.8,6.15q0,3.94 1.76,6.07q1.78,2.11 4.98,2.11q1.12,0 2.27,-0.29q1.15,-0.29 2.07,-0.76q0.8,-0.41 1.5,-0.86q0.7,-0.47 1.11,-0.8l0.2,0l0,4.04zm23.57,-20.45l-12.73,29.86l-3.93,0l4.07,-9.1l-8.69,-20.76l3.98,0l6.7,16.17l6.76,-16.17l3.84,0z" fill="#ffffff" id="path130"/>
 </g>
</svg>