<?xml version="1.0" encoding="UTF-8" standalone="no"?>
<svg
   width="768"
   height="768"
   viewBox="0 0 203.20032 203.20032"
   version="1.1"
   id="svg134"
   sodipodi:docname="hexagon_white.svg"
   inkscape:version="1.2 (dc2aedaf03, 2022-05-15)"
   xmlns:inkscape="http://www.inkscape.org/namespaces/inkscape"
   xmlns:sodipodi="http://sodipodi.sourceforge.net/DTD/sodipodi-0.dtd"
   xmlns="http://www.w3.org/2000/svg"
   xmlns:svg="http://www.w3.org/2000/svg">
  <sodipodi:namedview
     id="namedview136"
     pagecolor="#505050"
     bordercolor="#eeeeee"
     borderopacity="1"
     inkscape:showpageshadow="0"
     inkscape:pageopacity="0"
     inkscape:pagecheckerboard="0"
     inkscape:deskcolor="#505050"
     showgrid="false"
     inkscape:zoom="0.97531385"
     inkscape:cx="291.70097"
     inkscape:cy="400.89659"
     inkscape:window-width="1920"
     inkscape:window-height="1017"
     inkscape:window-x="-8"
     inkscape:window-y="-8"
     inkscape:window-maximized="1"
     inkscape:current-layer="svg134" />
  <defs
     id="defs8">
    <path
       id="f"
       d="m -313.049,420.145 h 228.608 v 90.62 h -228.608 z" />
    <path
       id="e"
       d="m -616.597,735.391 h 502.046 v 156.978 h -502.046 z" />
    <path
       id="d"
       d="m -724.077,907.925 h 647.71 v 257.387 h -647.71 z" />
    <path
       id="c"
       d="M -472,818 H -36 V 964 H -472 Z" />
    <path
       id="b"
       d="m -565.685,-287.085 h 397.394 v 84.853 h -397.394 z" />
    <path
       id="a"
       d="M -941.866,837.214 H 14.142 v 410.122 h -956.008 z" />
  </defs>
  <path
     style="fill:#ff002f;fill-opacity:1;stroke:#ffffff;stroke-width:0.529167;stroke-linecap:round;stroke-linejoin:round;stroke-miterlimit:4;stroke-dasharray:none;stroke-opacity:1;paint-order:markers fill stroke"
     d="m 39.745897,64.945838 20.53,11.851 v -23.703 z"
     id="path10" />
  <path
     style="fill:#c10061;fill-opacity:1;stroke:#ffffff;stroke-width:0.529167;stroke-linecap:round;stroke-linejoin:round;stroke-miterlimit:4;stroke-dasharray:none;stroke-opacity:1;paint-order:markers fill stroke"
     d="m 60.274897,53.093838 20.528,11.852 v -23.704 z"
     id="path12" />
  <path
     style="fill:#e6004a;fill-opacity:1;stroke:#ffffff;stroke-width:0.529167;stroke-linecap:round;stroke-linejoin:round;stroke-miterlimit:4;stroke-dasharray:none;stroke-opacity:1;paint-order:markers fill stroke"
     d="m 60.274897,76.796838 20.528,11.853 v -23.704 z"
     id="path14" />
  <path
     style="fill:#780078;fill-opacity:1;stroke:#ffffff;stroke-width:0.529167;stroke-linecap:round;stroke-linejoin:round;stroke-miterlimit:4;stroke-dasharray:none;stroke-opacity:1;paint-order:markers fill stroke"
     d="m 80.803897,41.240838 20.528003,11.852 v -23.704 z"
     id="path16" />
  <path
     style="fill:#9e006e;fill-opacity:1;stroke:#ffffff;stroke-width:0.529167;stroke-linecap:round;stroke-linejoin:round;stroke-miterlimit:4;stroke-dasharray:none;stroke-opacity:1;paint-order:markers fill stroke"
     d="m 80.802897,64.945838 20.528003,11.852 v -23.704 z"
     id="path18" />
  <path
     style="fill:#c13a57;fill-opacity:1;stroke:#ffffff;stroke-width:0.529167;stroke-linecap:round;stroke-linejoin:round;stroke-miterlimit:4;stroke-dasharray:none;stroke-opacity:1;paint-order:markers fill stroke"
     d="M 80.802897,88.649838 101.3309,100.50184 V 76.796838 Z"
     id="path20" />
  <path
     style="display:inline;fill:#e6004a;fill-opacity:1;stroke:#ffffff;stroke-width:0.529167;stroke-linecap:round;stroke-linejoin:round;stroke-miterlimit:4;stroke-dasharray:none;stroke-opacity:1;paint-order:markers fill stroke"
     d="m 80.802897,64.945838 -20.527,-11.852 v 23.704 z"
     id="path22" />
  <path
     style="display:inline;fill:#c1295c;fill-opacity:1;stroke:#ffffff;stroke-width:0.529167;stroke-linecap:round;stroke-linejoin:round;stroke-miterlimit:4;stroke-dasharray:none;stroke-opacity:1;paint-order:markers fill stroke"
     d="m 101.3319,76.796838 -20.529003,-11.85 v 23.704 z"
     id="path24" />
  <path
     style="display:inline;fill:#9e006e;fill-opacity:1;stroke:#ffffff;stroke-width:0.529167;stroke-linecap:round;stroke-linejoin:round;stroke-miterlimit:4;stroke-dasharray:none;stroke-opacity:1;paint-order:markers fill stroke"
     d="m 80.803897,41.240838 v 0 23.705 l 20.528003,-11.852 v 0 z"
     id="path26" />
  <path
     style="fill:#2a2f78;fill-opacity:1;stroke:#ffffff;stroke-width:0.529167;stroke-linecap:round;stroke-linejoin:round;stroke-miterlimit:4;stroke-dasharray:none;stroke-opacity:1;paint-order:markers fill stroke"
     d="m 162.9159,64.945838 -20.528,11.852 v -23.704 z"
     id="path28" />
  <path
     style="fill:#4f2578;fill-opacity:1;stroke:#ffffff;stroke-width:0.529167;stroke-linecap:round;stroke-linejoin:round;stroke-miterlimit:4;stroke-dasharray:none;stroke-opacity:1;paint-order:markers fill stroke"
     d="m 142.3879,53.093838 -20.528,11.852 v -23.704 z"
     id="path30" />
  <path
     style="fill:#3e2b78;fill-opacity:1;stroke:#ffffff;stroke-width:0.529167;stroke-linecap:round;stroke-linejoin:round;stroke-miterlimit:4;stroke-dasharray:none;stroke-opacity:1;paint-order:markers fill stroke"
     d="m 142.3879,76.796838 -20.528,11.853 v -23.704 z"
     id="path32" />
  <path
     style="fill:#780078;fill-opacity:1;stroke:#ffffff;stroke-width:0.529167;stroke-linecap:round;stroke-linejoin:round;stroke-miterlimit:4;stroke-dasharray:none;stroke-opacity:1;paint-order:markers fill stroke"
     d="m 121.8589,41.240838 -20.528,11.852 v -23.704 z"
     id="path34" />
  <path
     style="fill:#681778;fill-opacity:1;stroke:#ffffff;stroke-width:0.529167;stroke-linecap:round;stroke-linejoin:round;stroke-miterlimit:4;stroke-dasharray:none;stroke-opacity:1;paint-order:markers fill stroke"
     d="m 121.8599,64.945838 -20.529,11.851 v -23.703 z"
     id="path36" />
  <path
     style="fill:#9b4e5d;fill-opacity:1;stroke:#ffffff;stroke-width:0.529167;stroke-linecap:round;stroke-linejoin:round;stroke-miterlimit:4;stroke-dasharray:none;stroke-opacity:1;paint-order:markers fill stroke"
     d="m 121.8599,88.649838 -20.529,11.852002 V 76.796838 Z"
     id="path38" />
  <path
     style="display:inline;fill:#3e2b78;fill-opacity:1;stroke:#ffffff;stroke-width:0.529167;stroke-linecap:round;stroke-linejoin:round;stroke-miterlimit:4;stroke-dasharray:none;stroke-opacity:1;paint-order:markers fill stroke"
     d="m 121.8599,64.945838 20.528,-11.852 v 23.704 z"
     id="path40" />
  <path
     style="display:inline;fill:#813f6a;fill-opacity:1;stroke:#ffffff;stroke-width:0.529167;stroke-linecap:round;stroke-linejoin:round;stroke-miterlimit:4;stroke-dasharray:none;stroke-opacity:1;paint-order:markers fill stroke"
     d="m 101.3309,76.796838 20.529,-11.851 v 23.704 z"
     id="path42" />
  <path
     style="display:inline;fill:#681778;fill-opacity:1;stroke:#ffffff;stroke-width:0.529167;stroke-linecap:round;stroke-linejoin:round;stroke-miterlimit:4;stroke-dasharray:none;stroke-opacity:1;paint-order:markers fill stroke"
     d="m 121.8589,41.240838 v 0 23.705 l -20.527,-11.852 v 0 z"
     id="path44" />
  <path
     style="fill:#906159;fill-opacity:1;stroke:#ffffff;stroke-width:0.529167;stroke-linecap:round;stroke-linejoin:round;stroke-miterlimit:4;stroke-dasharray:none;stroke-opacity:1;paint-order:markers fill stroke"
     d="m 101.3309,100.50184 20.529,11.852 V 88.649838 Z"
     id="path46" />
  <path
     style="fill:#274172;fill-opacity:1;stroke:#ffffff;stroke-width:0.529167;stroke-linecap:round;stroke-linejoin:round;stroke-miterlimit:4;stroke-dasharray:none;stroke-opacity:1;paint-order:markers fill stroke"
     d="m 121.8599,88.649838 20.528,11.852002 V 76.796838 Z"
     id="path48" />
  <path
     style="fill:#137252;fill-opacity:1;stroke:#ffffff;stroke-width:0.529167;stroke-linecap:round;stroke-linejoin:round;stroke-miterlimit:4;stroke-dasharray:none;stroke-opacity:1;paint-order:markers fill stroke"
     d="m 121.8599,112.35384 20.528,11.852 v -23.704 z"
     id="path50" />
  <path
     style="fill:#2a2f78;fill-opacity:1;stroke:#ffffff;stroke-width:0.529167;stroke-linecap:round;stroke-linejoin:round;stroke-miterlimit:4;stroke-dasharray:none;stroke-opacity:1;paint-order:markers fill stroke"
     d="m 142.3879,76.796838 20.529,11.852 v -23.704 z"
     id="path52" />
  <path
     style="fill:#22546a;fill-opacity:1;stroke:#ffffff;stroke-width:0.529167;stroke-linecap:round;stroke-linejoin:round;stroke-miterlimit:4;stroke-dasharray:none;stroke-opacity:1;paint-order:markers fill stroke"
     d="m 142.3879,100.50184 20.528,11.852 V 88.649838 Z"
     id="path54" />
  <path
     style="fill:#008339;fill-opacity:1;stroke:#ffffff;stroke-width:0.529167;stroke-linecap:round;stroke-linejoin:round;stroke-miterlimit:4;stroke-dasharray:none;stroke-opacity:1;paint-order:markers fill stroke"
     d="m 142.3879,124.20584 20.528,11.852 v -23.704 z"
     id="path56" />
  <path
     style="display:inline;fill:#625e62;fill-opacity:1;stroke:#ffffff;stroke-width:0.529167;stroke-linecap:round;stroke-linejoin:round;stroke-miterlimit:4;stroke-dasharray:none;stroke-opacity:1;paint-order:markers fill stroke"
     d="M 142.3879,100.50184 121.8599,88.649838 V 112.35384 Z"
     id="path58" />
  <path
     style="display:inline;fill:#137252;fill-opacity:1;stroke:#ffffff;stroke-width:0.529167;stroke-linecap:round;stroke-linejoin:round;stroke-miterlimit:4;stroke-dasharray:none;stroke-opacity:1;paint-order:markers fill stroke"
     d="m 162.9159,112.35384 -20.528,-11.852 v 23.704 z"
     id="path60" />
  <path
     style="display:inline;fill:#274172;fill-opacity:1;stroke:#ffffff;stroke-width:0.529167;stroke-linecap:round;stroke-linejoin:round;stroke-miterlimit:4;stroke-dasharray:none;stroke-opacity:1;paint-order:markers fill stroke"
     d="m 142.3889,76.796838 h -0.001 v 23.705002 l 20.528,-11.852002 h 0.001 z"
     id="path62" />
  <path
     style="fill:#ff4200;fill-opacity:1;stroke:#ffffff;stroke-width:0.529167;stroke-linecap:round;stroke-linejoin:round;stroke-miterlimit:4;stroke-dasharray:none;stroke-opacity:1;paint-order:markers fill stroke"
     d="m 39.745897,136.05784 20.53,11.852 v -23.703 z"
     id="path64" />
  <path
     style="fill:#ff5300;fill-opacity:1;stroke:#ffffff;stroke-width:0.529167;stroke-linecap:round;stroke-linejoin:round;stroke-miterlimit:4;stroke-dasharray:none;stroke-opacity:1;paint-order:markers fill stroke"
     d="m 60.274897,124.20684 20.528,11.851 v -23.704 z"
     id="path66" />
  <path
     style="fill:#ff6400;fill-opacity:1;stroke:#ffffff;stroke-width:0.529167;stroke-linecap:round;stroke-linejoin:round;stroke-miterlimit:4;stroke-dasharray:none;stroke-opacity:1;paint-order:markers fill stroke"
     d="m 60.274897,147.90984 20.528,11.852 v -23.704 z"
     id="path68" />
  <path
     style="fill:#c95d45;fill-opacity:1;stroke:#ffffff;stroke-width:0.529167;stroke-linecap:round;stroke-linejoin:round;stroke-miterlimit:4;stroke-dasharray:none;stroke-opacity:1;paint-order:markers fill stroke"
     d="m 80.803897,112.35384 20.528003,11.852 v -23.704 z"
     id="path70" />
  <path
     style="fill:#ff9a00;fill-opacity:1;stroke:#ffffff;stroke-width:0.529167;stroke-linecap:round;stroke-linejoin:round;stroke-miterlimit:4;stroke-dasharray:none;stroke-opacity:1;paint-order:markers fill stroke"
     d="m 80.802897,136.05784 20.528003,11.852 v -23.703 z"
     id="path72" />
  <path
     style="fill:#ffb900;fill-opacity:1;stroke:#ffffff;stroke-width:0.529167;stroke-linecap:round;stroke-linejoin:round;stroke-miterlimit:4;stroke-dasharray:none;stroke-opacity:1;paint-order:markers fill stroke"
     d="m 80.802897,159.76184 20.528003,11.852 v -23.704 z"
     id="path74" />
  <path
     style="display:inline;fill:#ff5300;fill-opacity:1;stroke:#ffffff;stroke-width:0.529167;stroke-linecap:round;stroke-linejoin:round;stroke-miterlimit:4;stroke-dasharray:none;stroke-opacity:1;paint-order:markers fill stroke"
     d="m 80.802897,136.05784 -20.527,-11.851 v 23.704 z"
     id="path76" />
  <path
     style="display:inline;fill:#ff9a00;fill-opacity:1;stroke:#ffffff;stroke-width:0.529167;stroke-linecap:round;stroke-linejoin:round;stroke-miterlimit:4;stroke-dasharray:none;stroke-opacity:1;paint-order:markers fill stroke"
     d="m 101.3319,147.90984 -20.529003,-11.852 v 23.704 z"
     id="path78" />
  <path
     style="display:inline;fill:#e26331;fill-opacity:1;stroke:#ffffff;stroke-width:0.529167;stroke-linecap:round;stroke-linejoin:round;stroke-miterlimit:4;stroke-dasharray:none;stroke-opacity:1;paint-order:markers fill stroke"
     d="m 80.803897,112.35384 v 0 23.704 l 20.528003,-11.852 v 0 z"
     id="path80" />
  <path
     style="fill:#008339;fill-opacity:1;stroke:#ffffff;stroke-width:0.529167;stroke-linecap:round;stroke-linejoin:round;stroke-miterlimit:4;stroke-dasharray:none;stroke-opacity:1;paint-order:markers fill stroke"
     d="m 162.9159,136.05784 -20.528,11.852 v -23.703 z"
     id="path82" />
  <path
     style="fill:#468737;fill-opacity:1;stroke:#ffffff;stroke-width:0.529167;stroke-linecap:round;stroke-linejoin:round;stroke-miterlimit:4;stroke-dasharray:none;stroke-opacity:1;paint-order:markers fill stroke"
     d="m 142.3879,124.20684 -20.528,11.851 v -23.704 z"
     id="path84" />
  <path
     style="fill:#93952f;fill-opacity:1;stroke:#ffffff;stroke-width:0.529167;stroke-linecap:round;stroke-linejoin:round;stroke-miterlimit:4;stroke-dasharray:none;stroke-opacity:1;paint-order:markers fill stroke"
     d="m 142.3879,147.90984 -20.528,11.852 v -23.704 z"
     id="path86" />
  <path
     style="fill:#a7694e;fill-opacity:1;stroke:#ffffff;stroke-width:0.529167;stroke-linecap:round;stroke-linejoin:round;stroke-miterlimit:4;stroke-dasharray:none;stroke-opacity:1;paint-order:markers fill stroke"
     d="m 121.8589,112.35384 -20.528,11.852 v -23.704 z"
     id="path88" />
  <path
     style="fill:#d7aa1e;fill-opacity:1;stroke:#ffffff;stroke-width:0.529167;stroke-linecap:round;stroke-linejoin:round;stroke-miterlimit:4;stroke-dasharray:none;stroke-opacity:1;paint-order:markers fill stroke"
     d="m 121.8599,136.05784 -20.528,11.852 v -23.703 z"
     id="path90" />
  <path
     style="fill:#ffb900;fill-opacity:1;stroke:#ffffff;stroke-width:0.529167;stroke-linecap:round;stroke-linejoin:round;stroke-miterlimit:4;stroke-dasharray:none;stroke-opacity:1;paint-order:markers fill stroke"
     d="m 121.8599,159.76184 -20.528,11.852 v -23.704 z"
     id="path92" />
  <path
     style="display:inline;fill:#468737;fill-opacity:1;stroke:#ffffff;stroke-width:0.529167;stroke-linecap:round;stroke-linejoin:round;stroke-miterlimit:4;stroke-dasharray:none;stroke-opacity:1;paint-order:markers fill stroke"
     d="m 121.8599,136.05784 20.528,-11.852 v 23.704 z"
     id="path94" />
  <path
     style="display:inline;fill:#d7aa1e;fill-opacity:1;stroke:#ffffff;stroke-width:0.529167;stroke-linecap:round;stroke-linejoin:round;stroke-miterlimit:4;stroke-dasharray:none;stroke-opacity:1;paint-order:markers fill stroke"
     d="m 101.3309,147.90984 20.529,-11.852 v 23.704 z"
     id="path96" />
  <path
     style="display:inline;fill:#a37d43;fill-opacity:1;stroke:#ffffff;stroke-width:0.529167;stroke-linecap:round;stroke-linejoin:round;stroke-miterlimit:4;stroke-dasharray:none;stroke-opacity:1;paint-order:markers fill stroke"
     d="m 121.8589,112.35384 v 0 23.704 l -20.527,-11.851 v 0 z"
     id="path98" />
  <path
     style="fill:#d2424c;fill-opacity:1;stroke:#ffffff;stroke-width:0.529167;stroke-linecap:round;stroke-linejoin:round;stroke-miterlimit:4;stroke-dasharray:none;stroke-opacity:1;paint-order:markers fill stroke"
     d="m 101.3309,100.50184 -20.528003,11.852 V 88.649838 Z"
     id="path100" />
  <path
     style="fill:#ff192a;fill-opacity:1;stroke:#ffffff;stroke-width:0.529167;stroke-linecap:round;stroke-linejoin:round;stroke-miterlimit:4;stroke-dasharray:none;stroke-opacity:1;paint-order:markers fill stroke"
     d="m 80.802897,88.649838 -20.527,11.852002 V 76.796838 Z"
     id="path102" />
  <path
     style="fill:#ff3815;fill-opacity:1;stroke:#ffffff;stroke-width:0.529167;stroke-linecap:round;stroke-linejoin:round;stroke-miterlimit:4;stroke-dasharray:none;stroke-opacity:1;paint-order:markers fill stroke"
     d="m 80.802897,112.35384 -20.527,11.852 v -23.704 z"
     id="path104" />
  <path
     style="fill:#ff002f;fill-opacity:1;stroke:#ffffff;stroke-width:0.529167;stroke-linecap:round;stroke-linejoin:round;stroke-miterlimit:4;stroke-dasharray:none;stroke-opacity:1;paint-order:markers fill stroke"
     d="m 60.273897,76.796838 -20.528,11.852 v -23.704 z"
     id="path106" />
  <path
     style="fill:#ff2923;fill-opacity:1;stroke:#ffffff;stroke-width:0.529167;stroke-linecap:round;stroke-linejoin:round;stroke-miterlimit:4;stroke-dasharray:none;stroke-opacity:1;paint-order:markers fill stroke"
     d="m 60.274897,100.50184 -20.529,11.852 V 88.649838 Z"
     id="path108" />
  <path
     style="fill:#ff4200;fill-opacity:1;stroke:#ffffff;stroke-width:0.529167;stroke-linecap:round;stroke-linejoin:round;stroke-miterlimit:4;stroke-dasharray:none;stroke-opacity:1;paint-order:markers fill stroke"
     d="m 60.274897,124.20584 -20.529,11.851 v -23.704 z"
     id="path110" />
  <path
     style="display:inline;fill:#ea373b;fill-opacity:1;stroke:#ffffff;stroke-width:0.529167;stroke-linecap:round;stroke-linejoin:round;stroke-miterlimit:4;stroke-dasharray:none;stroke-opacity:1;paint-order:markers fill stroke"
     d="m 60.274897,100.50184 20.528,-11.852002 v 23.704002 z"
     id="path112" />
  <path
     style="display:inline;fill:#ff3815;fill-opacity:1;stroke:#ffffff;stroke-width:0.529167;stroke-linecap:round;stroke-linejoin:round;stroke-miterlimit:4;stroke-dasharray:none;stroke-opacity:1;paint-order:markers fill stroke"
     d="m 39.745897,112.35384 20.53,-11.852 v 23.704 z"
     id="path114" />
  <path
     style="display:inline;fill:#ff192a;fill-opacity:1;stroke:#ffffff;stroke-width:0.529167;stroke-linecap:round;stroke-linejoin:round;stroke-miterlimit:4;stroke-dasharray:none;stroke-opacity:1;paint-order:markers fill stroke"
     d="m 60.273897,76.796838 v 0 23.705002 l -20.528,-11.852002 v 0 z"
     id="path116" />
  <path
     style="fill:none;fill-opacity:1;stroke:#ffffff;stroke-width:0.529167;stroke-linecap:round;stroke-linejoin:round;stroke-miterlimit:4;stroke-dasharray:none;stroke-opacity:1;paint-order:markers fill stroke"
     d="m 80.802897,41.241838 -20.528,11.852 v -23.704 z m 102.642003,59.260002 -20.529,11.852 V 88.649838 Z m -61.586,-59.261002 20.528,11.852 v -23.704 z m -102.641003,59.261002 20.528,11.852 V 88.649838 Z m 61.585,59.26 -20.528,11.852 v -23.704 z m 41.057003,0 20.528,11.852 v -23.704 z"
     id="path118" />
  <path
     d="m 43.255048,36.961931 q -0.18418,0.249326 -0.331218,0.459793 -0.142817,0.207725 -0.405585,0.49662 -0.223822,0.242579 -0.512388,0.486793 -0.281699,0.246054 -0.666653,0.468316 -0.724997,0.418594 -1.436592,0.560894 -0.709525,0.135299 -1.398672,-0.04547 -0.675184,-0.177222 -1.294242,-0.691152 -0.621211,-0.518187 -1.122625,-1.386625 -0.47535,-0.823298 -0.617215,-1.606636 -0.142094,-0.783207 0.0382,-1.484297 0.174479,-0.679405 0.642367,-1.253854 0.472471,-0.577096 1.206404,-1.000849 0.536874,-0.309977 1.144504,-0.487879 0.611755,-0.180284 1.453919,-0.230848 l 0.607252,1.05175 -0.06714,0.03876 q -0.816578,-0.143246 -1.479714,-0.04084 -0.662907,0.102273 -1.280437,0.458819 -0.505711,0.291983 -0.817469,0.692879 -0.309591,0.393534 -0.42843,0.921658 -0.115062,0.514029 0.0075,1.129487 0.124608,0.60846 0.512112,1.279609 0.405761,0.70277 0.885639,1.099996 0.484461,0.394579 0.968132,0.539083 0.504177,0.150386 1.013529,0.07108 0.511193,-0.08617 0.976575,-0.354869 0.639986,-0.369511 1.072705,-0.911739 0.432816,-0.54259 0.667204,-1.262695 l 0.06278,-0.03625 z m 4.283867,-5.158653 q 0.705418,1.221771 0.486996,2.290733 -0.218192,1.068829 -1.269941,1.676082 -1.060686,0.612412 -2.095428,0.266993 -1.030388,-0.347932 -1.735806,-1.569703 -0.705419,-1.221771 -0.49158,-2.288087 0.215546,-1.073412 1.276232,-1.685824 1.05175,-0.607253 2.089138,-0.257251 1.03497,0.345286 1.740389,1.567057 z m -0.868439,0.501413 q -0.560815,-0.971322 -1.212532,-1.22167 -0.65423,-0.254702 -1.330191,0.13558 -0.684439,0.395177 -0.790952,1.089112 -0.104672,0.687067 0.456144,1.658389 0.542558,0.9397 1.204594,1.207922 0.659522,0.263867 1.339837,-0.128928 0.671378,-0.387636 0.775244,-1.086154 0.105803,-0.705746 -0.441914,-1.654383 z m 10.907542,-2.968111 -0.841629,0.485934 -1.643418,-2.846369 q -0.186013,-0.32217 -0.390584,-0.603988 -0.199857,-0.284235 -0.397262,-0.40918 -0.214244,-0.132942 -0.463248,-0.120244 -0.249365,0.0126 -0.611864,0.221898 -0.353562,0.204137 -0.603666,0.587462 -0.252883,0.378512 -0.448744,0.855784 0.07292,0.09508 0.161899,0.228547 0.08669,0.128984 0.16422,0.263259 l 1.847555,3.199932 -0.841629,0.485934 -1.643418,-2.846369 q -0.191172,-0.331107 -0.392868,-0.608475 -0.200218,-0.284332 -0.397491,-0.409047 -0.214014,-0.133075 -0.460734,-0.115891 -0.249366,0.0126 -0.611864,0.221899 -0.344626,0.198977 -0.595439,0.57049 -0.246328,0.369228 -0.438545,0.832174 l 2.155151,3.73268 -0.8414,0.485802 -2.886367,-4.999133 0.8414,-0.485802 0.320428,0.554976 q 0.205232,-0.554175 0.488568,-0.962492 0.288052,-0.410733 0.730978,-0.666467 0.510293,-0.29463 0.98782,-0.284064 0.481879,0.0081 0.8761,0.287612 0.262233,-0.724266 0.574447,-1.155061 0.309569,-0.435378 0.788241,-0.711751 0.823527,-0.475482 1.502305,-0.198901 0.680944,0.26922 1.197704,1.164238 z m 8.914666,-5.147093 -0.8414,0.485802 -1.643418,-2.846369 q -0.186012,-0.32217 -0.390355,-0.60412 -0.199856,-0.284236 -0.39749,-0.409048 -0.214015,-0.133075 -0.463248,-0.120244 -0.249366,0.0126 -0.611864,0.221898 -0.353562,0.204137 -0.603666,0.587462 -0.252654,0.37838 -0.448515,0.855651 0.07269,0.09521 0.161669,0.22868 0.08669,0.128984 0.16422,0.26326 l 1.847556,3.199931 -0.841629,0.485934 -1.643418,-2.846369 q -0.191172,-0.331107 -0.392869,-0.608474 -0.199988,-0.284465 -0.39749,-0.409048 -0.214015,-0.133075 -0.460735,-0.115891 -0.249365,0.0126 -0.611864,0.221899 -0.344396,0.198845 -0.595439,0.57049 -0.246327,0.369228 -0.438544,0.832175 l 2.155151,3.73268 -0.8414,0.485802 -2.886367,-4.999134 0.841399,-0.485802 0.320428,0.554976 q 0.205462,-0.554307 0.488569,-0.962491 0.28828,-0.410866 0.731207,-0.6666 0.510064,-0.294498 0.987819,-0.284064 0.48188,0.0081 0.875871,0.287745 0.262233,-0.724267 0.574448,-1.155062 0.309569,-0.435378 0.78847,-0.711883 0.823297,-0.47535 1.502305,-0.198902 0.680485,0.269485 1.197245,1.164503 z m 5.504844,-3.178351 -0.837046,0.483288 -0.307463,-0.532519 q -0.0679,0.140636 -0.180333,0.390396 -0.110367,0.242761 -0.242756,0.426744 -0.150815,0.224563 -0.385318,0.449172 -0.231495,0.229289 -0.598577,0.441232 -0.675731,0.390149 -1.404209,0.213756 -0.728115,-0.176296 -1.128584,-0.869901 -0.328102,-0.568265 -0.288213,-1.056917 0.04219,-0.495783 0.37776,-0.95809 0.340155,-0.464953 0.938864,-0.905956 0.598576,-0.441232 1.311871,-0.900731 l -0.07488,-0.129693 q -0.165374,-0.286424 -0.376743,-0.414916 -0.207147,-0.131235 -0.45709,-0.130216 -0.23836,4.42e-4 -0.509677,0.109431 -0.271449,0.10876 -0.544354,0.266328 -0.331107,0.191173 -0.686788,0.515994 -0.358097,0.320106 -0.696435,0.736348 l -0.04491,0.02593 -0.493476,-0.854689 q 0.2072,-0.209457 0.626374,-0.558716 0.418584,-0.349224 0.870905,-0.610382 0.527937,-0.304817 0.968842,-0.440229 0.443334,-0.142314 0.851209,-0.09734 0.400646,0.04304 0.73687,0.284591 0.336453,0.24142 0.615472,0.724675 z M 70.449904,20.263717 69.64632,18.871925 q -0.372122,0.244488 -0.869545,0.591571 -0.493432,0.344471 -0.748646,0.605175 -0.302964,0.31241 -0.400355,0.660723 -0.09954,0.344057 0.120073,0.724428 0.24806,0.429636 0.634056,0.49916 0.383712,0.06504 0.916461,-0.242557 0.442926,-0.255734 0.711709,-0.637927 0.266173,-0.386186 0.439831,-0.808781 z m 7.347599,-2.601333 -0.8414,0.485802 -1.643418,-2.846369 q -0.198978,-0.344626 -0.412124,-0.621188 -0.216022,-0.281012 -0.421654,-0.388985 -0.220305,-0.123333 -0.482516,-0.09171 -0.264593,0.0275 -0.600282,0.221322 -0.344626,0.198977 -0.622477,0.586101 -0.277491,0.387221 -0.469708,0.850167 l 2.155151,3.732681 -0.8414,0.485801 -2.886367,-4.999133 0.8414,-0.485802 0.320428,0.554976 q 0.205232,-0.554175 0.51996,-0.980616 0.314861,-0.426213 0.758016,-0.682079 0.809779,-0.467545 1.516594,-0.225483 0.706718,0.242423 1.236443,1.159897 z m 5.674865,-3.276517 -0.8414,0.485802 -0.302303,-0.523584 q -0.181646,0.522531 -0.474495,0.924425 -0.293308,0.402158 -0.754107,0.668212 -0.895248,0.516892 -1.82114,0.132457 -0.921539,-0.386947 -1.626957,-1.608718 -0.366998,-0.635633 -0.475093,-1.2356 -0.103055,-0.602878 0.0045,-1.129967 0.107604,-0.515833 0.406973,-0.927602 0.304217,-0.413956 0.738207,-0.66453 0.39389,-0.227422 0.747138,-0.318334 0.350866,-0.09504 0.787367,-0.11425 l -1.250755,-2.1662835 0.8414,-0.485802 z M 81.92039,13.640961 80.264007,10.772137 q -0.427889,0.04418 -0.730045,0.141036 -0.302023,0.09708 -0.619839,0.280581 -0.707124,0.408275 -0.816836,1.127888 -0.109483,0.719481 0.412568,1.623665 0.514114,0.890435 1.087243,1.180353 0.57035,0.285106 1.241729,-0.10253 0.357915,-0.206651 0.634636,-0.575096 0.273846,-0.372895 0.446927,-0.807073 z"
     aria-label="Command"
     style="font-size:40px;line-height:1.25;white-space:pre;shape-inside:url(#a);fill:#ffffff;stroke-width:0.26459"
     id="path120" />
  <path
     d="m 128.27804,19.529182 -0.88605,-0.511566 1.88354,-3.262396 -3.32518,-1.919792 -1.88354,3.262396 -0.88606,-0.511566 3.84726,-6.6636465 0.88606,0.5115665 -1.5089,2.613491 3.32517,1.919792 1.5089,-2.613491 0.88606,0.511566 z m 5.99617,-4.318855 -0.94884,-0.547813 0.50403,-0.872996 0.94861,0.54768 z m -3.423,5.804471 -0.84138,-0.485769 2.88604,-4.998765 0.84138,0.485769 z m 7.24192,0.965016 -3.68331,-2.126561 q -0.26617,0.461015 -0.32628,0.885799 -0.0577,0.420069 0.0574,0.778915 0.10884,0.349104 0.36438,0.639922 0.26035,0.293595 0.64506,0.51571 0.51028,0.29461 1.14119,0.390325 0.63802,0.09401 0.97107,0.02355 l 0.0447,0.0258 -0.52969,0.917448 q -0.52859,-0.06658 -1.04158,-0.201444 -0.51263,-0.134963 -1.00046,-0.416609 -1.24419,-0.718335 -1.55452,-1.79265 -0.30805,-1.0788 0.40764,-2.31841 0.70802,-1.22632 1.79072,-1.56175 1.08741,-0.333014 2.17923,0.297348 1.01139,0.583928 1.21624,1.490109 0.20956,0.908598 -0.41829,1.996063 z m -0.44702,-1.117488 q 0.37774,-0.66484 0.25615,-1.218355 -0.11746,-0.551134 -0.78882,-0.938744 -0.67594,-0.390255 -1.30845,-0.224455 -0.62815,0.168313 -1.02304,0.727929 z m 5.8053,1.985444 -0.0447,-0.0258 q -0.16196,-0.153388 -0.33082,-0.274711 -0.16154,-0.122899 -0.40327,-0.262465 -0.38953,-0.224893 -0.85246,-0.259673 -0.46078,-0.03904 -0.95402,0.04006 l -2.04891,3.548812 -0.84137,-0.485768 2.88604,-4.998766 0.84137,0.485769 -0.42624,0.738266 q 0.73355,-0.113268 1.20979,-0.0592 0.4831,0.05223 0.88133,0.282151 0.21928,0.126602 0.30991,0.196644 0.0932,0.06605 0.2723,0.210981 z m 2.15917,6.688356 -0.83679,-0.483123 0.30744,-0.532505 q -0.15574,0.01152 -0.42838,0.03925 -0.26528,0.02557 -0.49103,0.0028 -0.26987,-0.01833 -0.58163,-0.109115 -0.31407,-0.08571 -0.68114,-0.297635 -0.67594,-0.390256 -0.8873,-1.108947 -0.21123,-0.718921 0.18908,-1.412277 0.32821,-0.568479 0.77133,-0.778244 0.45021,-0.211473 1.01857,-0.151873 0.57272,0.06211 1.25396,0.360111 0.68137,0.297767 1.43592,0.685747 l 0.0749,-0.129689 q 0.16536,-0.286416 0.17073,-0.533836 0.0102,-0.244641 -0.11576,-0.460944 -0.11933,-0.206067 -0.34936,-0.386537 -0.23004,-0.18047 -0.50293,-0.338027 -0.33133,-0.191292 -0.79009,-0.337009 -0.45625,-0.150071 -0.9861,-0.235097 l -0.0447,-0.0258 0.49344,-0.854666 q 0.28485,0.07494 0.79678,0.26297 0.51181,0.188255 0.96388,0.449263 0.52816,0.304928 0.86586,0.619051 0.3448,0.312415 0.50964,0.688351 0.16304,0.368478 0.12232,0.780319 -0.0411,0.411939 -0.32022,0.895409 z m -0.1264,-1.713567 0.80367,-1.391983 q -0.39791,-0.199792 -0.94728,-0.457394 -0.54478,-0.254956 -0.89838,-0.345761 -0.42202,-0.106173 -0.77225,-0.01601 -0.34782,0.08545 -0.56742,0.465811 -0.24805,0.429624 -0.11504,0.798789 0.13552,0.364811 0.66802,0.672253 0.44315,0.255849 0.90815,0.297629 0.46787,0.03733 0.92067,-0.02357 z m 7.22214,0.368537 -0.0447,-0.0258 q -0.16196,-0.153388 -0.33083,-0.274711 -0.16177,-0.123031 -0.40327,-0.262464 -0.38953,-0.224893 -0.85269,-0.259806 -0.46078,-0.03904 -0.95379,0.04019 l -2.0489,3.548812 -0.84138,-0.485769 2.88604,-4.998766 0.84137,0.485769 -0.42623,0.738267 q 0.73354,-0.113269 1.20955,-0.05933 0.4831,0.05223 0.88134,0.28215 0.21928,0.126602 0.31013,0.196776 0.0932,0.06605 0.27207,0.210849 z m 2.3132,6.359653 q -0.53697,-0.04148 -0.98189,-0.149261 -0.44069,-0.105042 -0.86574,-0.35044 -0.54167,-0.312733 -0.90303,-0.730336 -0.35908,-0.422089 -0.49534,-0.930611 -0.14051,-0.510674 -0.0353,-1.106171 0.10511,-0.595857 0.48492,-1.253698 0.70788,-1.226091 1.78233,-1.536649 1.07903,-0.307913 2.18437,0.330254 0.42962,0.248044 0.77143,0.60639 0.34648,0.361353 0.59006,0.734784 l -0.53987,0.935092 -0.0447,-0.0258 q -0.21191,-0.521953 -0.53043,-0.920626 -0.31417,-0.39616 -0.7037,-0.621053 -0.71604,-0.413406 -1.41114,-0.170403 -0.68824,0.241162 -1.2256,1.171901 -0.52202,0.904158 -0.40085,1.624548 0.12817,0.718321 0.86208,1.142046 0.25526,0.147371 0.55798,0.232633 0.30272,0.08526 0.57511,0.09924 0.23777,0.01202 0.45838,0.0019 0.223,-0.01423 0.36086,-0.03607 l 0.0449,0.02593 z m 5.07754,3.349148 -0.84138,-0.485769 1.64331,-2.84629 q 0.19896,-0.344616 0.33167,-0.667605 0.13558,-0.327439 0.12628,-0.5595 -0.003,-0.252447 -0.16196,-0.46348 -0.15611,-0.215387 -0.49179,-0.409192 -0.34461,-0.198964 -0.81878,-0.246035 -0.47394,-0.04694 -0.97095,0.01806 l -2.155,3.732577 -0.84138,-0.485769 4.02042,-6.963581 0.84138,0.485769 -1.45466,2.519546 q 0.5823,-0.09947 1.10895,-0.04012 0.52652,0.05958 0.96966,0.315427 0.80999,0.467645 0.95352,1.200638 0.14349,0.733583 -0.38607,1.650803 z m 8.7396,-1.619514 -6.86849,5.158247 -0.89935,-0.519239 2.13471,-1.547977 0.75521,-5.906992 0.91287,0.527044 -0.6042,4.591882 3.68764,-2.811656 z"
     aria-label="Hierarchy"
     style="font-size:40px;line-height:1.25;white-space:pre;shape-inside:url(#b);fill:#ffffff;stroke-width:0.26458"
     id="path122" />
  <path
     d="m 191.42626,85.760897 q -0.51169,0 -0.9509,-0.180972 -0.43391,-0.175681 -0.75458,-0.496088 -0.39766,-0.397928 -0.59927,-0.940582 -0.19632,-0.542389 -0.19632,-1.369201 v -1.023396 h -2.86805 v -1.023131 h 7.69452 v 2.087537 q 0,0.69267 -0.11906,1.173147 -0.11377,0.480742 -0.36168,0.852742 -0.29448,0.439203 -0.73368,0.67706 -0.43921,0.242884 -1.11124,0.242884 z m -0.0259,-1.06467 q 0.39792,0 0.6924,-0.139433 0.29474,-0.139434 0.48074,-0.423857 0.16007,-0.247912 0.22728,-0.568318 0.0722,-0.31538 0.0722,-0.800884 v -1.013077 h -3.07442 v 0.86306 q 0,0.620176 0.10848,1.007786 0.11377,0.387609 0.35638,0.630494 0.24818,0.242884 0.52202,0.341043 0.27384,0.103186 0.61489,0.103186 z m -0.63023,5.937705 v -0.05186 q 0.0516,-0.216955 0.0722,-0.423592 0.0257,-0.20161 0.0257,-0.480742 0,-0.449522 -0.20135,-0.867823 -0.19631,-0.41883 -0.51169,-0.80644 h -4.09782 v -0.971537 h 5.77208 v 0.971537 h -0.85248 q 0.46487,0.578902 0.65616,1.018104 0.19632,0.444495 0.19632,0.904335 0,0.253203 -0.0153,0.366972 -0.0106,0.11377 -0.0466,0.341044 z m -1.82958,5.833986 q -1.41074,0 -2.22723,-0.723359 -0.81649,-0.723362 -0.81649,-1.937784 0,-1.225005 0.81649,-1.948102 0.81649,-0.718335 2.22723,-0.718335 1.41075,0 2.22724,0.718335 0.82178,0.723361 0.82178,1.948102 0,1.214422 -0.82178,1.937784 -0.81649,0.723359 -2.22724,0.723359 z m 0,-1.002491 q 1.12156,0 1.66421,-0.439204 0.54768,-0.439201 0.54768,-1.219712 0,-0.790301 -0.54768,-1.229768 -0.54265,-0.433911 -1.66421,-0.433911 -1.08504,0 -1.64833,0.439202 -0.55826,0.439203 -0.55826,1.224741 0,0.77522 0.55297,1.214422 0.55826,0.444495 1.65362,0.444495 z m 0.0725,7.586043 q -0.70299,0 -1.28692,-0.20135 -0.57863,-0.20161 -0.98159,-0.56858 -0.38258,-0.34104 -0.59451,-0.80618 -0.20637,-0.45984 -0.20637,-0.97656 0,-0.44979 0.0979,-0.816493 0.0982,-0.36169 0.30506,-0.73898 h -2.41852 v -0.97153 h 7.90115 v 0.97153 h -0.60457 q 0.32544,0.38761 0.54239,0.86809 0.22225,0.485773 0.22225,1.033453 0,1.04403 -0.79056,1.62267 -0.78528,0.58393 -2.1857,0.58393 z m -0.0259,-1.0025 q 1.04377,0 1.56049,-0.35639 0.51699,-0.35665 0.51699,-1.09562 0,-0.41857 -0.18097,-0.842423 -0.18097,-0.423599 -0.47545,-0.81121 h -3.271 q -0.186,0.41328 -0.25321,0.70802 -0.0672,0.2995 -0.0672,0.676803 0,0.81146 0.54768,1.26601 0.54768,0.45508 1.62267,0.45508 z m -0.14472,7.34845 v -4.25313 q -0.53234,0 -0.93,0.16034 -0.3929,0.16007 -0.64611,0.4392 -0.24791,0.26882 -0.372,0.63552 -0.12408,0.37227 -0.12408,0.8165 0,0.58922 0.23256,1.18346 0.23759,0.59954 0.46513,0.85275 v 0.0516 h -1.05938 q -0.20663,-0.49106 -0.34633,-1.00276 -0.13943,-0.51143 -0.13943,-1.07472 0,-1.43667 0.77521,-2.24258 0.78025,-0.80618 2.21163,-0.80618 1.41603,0 2.24787,0.76993 0.8321,0.77522 0.8321,2.03594 0,1.16786 -0.68208,1.79835 -0.68235,0.63579 -1.93805,0.63579 z m 0.74426,-0.94588 q 0.76464,-0.005 1.1832,-0.38734 0.41857,-0.37729 0.41857,-1.15251 0,-0.78051 -0.45984,-1.24538 -0.45984,-0.45984 -1.14193,-0.52202 z m 1.18347,6.02026 v -0.0516 q 0.0516,-0.21696 0.0722,-0.42386 0.0257,-0.20135 0.0257,-0.48048 0,-0.44979 -0.20135,-0.86809 -0.19631,-0.41856 -0.51169,-0.80617 h -4.09782 v -0.97154 h 5.77208 v 0.97154 h -0.85248 q 0.46487,0.57863 0.65616,1.0181 0.19632,0.4445 0.19632,0.90434 0,0.2532 -0.0153,0.3667 -0.0106,0.11377 -0.0466,0.34131 z m -4.66137,3.91181 q -0.0722,-0.27384 -0.11907,-0.59927 -0.0463,-0.32041 -0.0463,-0.57361 0,-0.8837 0.47545,-1.34354 0.47545,-0.4601 1.52451,-0.4601 h 3.0694 v -0.65616 h 0.81649 v 0.65616 h 1.65892 v 0.97154 h -1.65892 v 2.00498 h -0.81649 v -2.00498 h -2.63019 q -0.45482,0 -0.71305,0.0206 -0.2532,0.0209 -0.47545,0.14473 -0.2069,0.11377 -0.30506,0.31009 -0.0929,0.20161 -0.0929,0.60985 0,0.2376 0.0672,0.49609 0.0722,0.25823 0.11879,0.372 v 0.0516 z m 5.72048,6.11339 -7.90115,-3.36916 v -1.03874 l 2.40794,1.07472 5.49321,-2.29946 v 1.05408 l -4.27879,1.77269 4.27879,1.78777 z"
     aria-label="Property"
     style="font-size:40px;line-height:1.25;white-space:pre;shape-inside:url(#c);fill:#ffffff;stroke-width:0.26458"
     id="path124" />
  <path
     d="m 33.875599,165.67024 -0.886057,-0.51157 1.883545,-3.26239 -3.325178,-1.91979 -1.883545,3.26239 -0.886057,-0.51156 3.847257,-6.66365 0.886058,0.51157 -1.5089,2.61349 3.325178,1.91979 1.5089,-2.61349 0.886057,0.51156 z m 7.425179,0.95717 q -0.705502,1.22196 -1.740199,1.56739 -1.034564,0.34519 -2.086285,-0.26202 -1.060656,-0.61237 -1.278991,-1.68093 -0.21385,-1.06627 0.491521,-2.288 0.70537,-1.22174 1.735713,-1.56968 1.037342,-0.35001 2.097999,0.26237 1.05172,0.60721 1.267277,1.68057 0.218432,1.06892 -0.486938,2.29066 z m -0.868185,-0.50125 q 0.560645,-0.97107 0.451611,-1.66062 -0.10652,-0.6939 -0.782463,-1.08416 -0.68442,-0.39515 -1.33885,-0.14058 -0.647105,0.253 -1.207882,1.22429 -0.542522,0.93968 -0.443806,1.6471 0.101229,0.70307 0.781524,1.09584 0.67136,0.38761 1.328207,0.12833 0.664075,-0.26123 1.211756,-1.20984 z m 6.204418,1.46982 -0.04468,-0.0258 q -0.162093,-0.15316 -0.330956,-0.27449 -0.161406,-0.12312 -0.403141,-0.26269 -0.389526,-0.22489 -0.852591,-0.25944 -0.460647,-0.0393 -0.954017,0.0401 l -2.048907,3.54881 -0.841377,-0.48577 2.886039,-4.99876 0.841376,0.48577 -0.426238,0.73826 q 0.73368,-0.11349 1.209783,-0.0592 0.483103,0.0522 0.881336,0.28215 0.21928,0.1266 0.309905,0.19664 0.09324,0.066 0.272299,0.21098 z m 2.709083,-0.7749 -0.94861,-0.54768 0.50376,-0.87254 0.948611,0.54768 z m -3.42314,5.8047 -0.841376,-0.48577 2.886038,-4.99876 0.841377,0.48577 z m 5.289765,3.05405 -4.036636,-2.33055 0.359167,-0.6221 5.034696,-1.99208 -2.850643,-1.64582 0.405601,-0.70252 3.897781,2.25038 -0.346203,0.59964 -5.055791,1.99793 3.002788,1.73366 z m 6.839056,0.61877 q -0.705502,1.22197 -1.740199,1.56739 -1.034793,0.34506 -2.086514,-0.26215 -1.060656,-0.61237 -1.278991,-1.68093 -0.21385,-1.06627 0.491521,-2.288 0.70537,-1.22174 1.735713,-1.56968 1.037342,-0.35 2.097999,0.26237 1.05172,0.60721 1.267506,1.68071 0.218203,1.06878 -0.487167,2.29052 z m -0.868414,-0.50138 q 0.560645,-0.97106 0.451611,-1.66062 -0.10652,-0.6939 -0.782234,-1.08403 -0.684649,-0.39528 -1.33885,-0.14058 -0.647105,0.253 -1.207882,1.22429 -0.542522,0.93968 -0.443806,1.6471 0.101229,0.70308 0.781295,1.09571 0.67136,0.38761 1.328207,0.12833 0.664075,-0.26123 1.211756,-1.20984 z m 4.908822,6.16387 -0.841377,-0.48577 1.643307,-2.84629 q 0.198964,-0.34461 0.331672,-0.6676 0.135486,-0.3278 0.126278,-0.5595 -0.0034,-0.25281 -0.162054,-0.46384 -0.156106,-0.21539 -0.491785,-0.4092 -0.344387,-0.19883 -0.818554,-0.2459 -0.474069,-0.0467 -0.971313,0.0182 l -2.154871,3.73234 -0.841148,-0.48563 2.886039,-4.99877 0.841147,0.48564 -0.320274,0.55473 q 0.582622,-0.099 1.109046,-0.0398 0.52652,0.0596 0.969663,0.31543 0.809985,0.46764 0.953514,1.20064 0.143625,0.73335 -0.386064,1.6508 z m 4.241385,2.38919 q -0.273268,-0.0744 -0.578384,-0.19675 -0.300763,-0.11988 -0.520044,-0.24648 -0.765304,-0.44185 -0.926041,-1.08365 -0.160508,-0.64168 0.364022,-1.55019 l 1.534564,-2.65794 -0.56825,-0.32808 0.408247,-0.70711 0.56825,0.32808 0.829458,-1.43666 0.841376,0.48577 -0.829458,1.43666 1.73637,1.0025 -0.408247,0.7071 -1.73637,-1.00249 -1.314963,2.27758 q -0.227538,0.39411 -0.338781,0.62806 -0.108729,0.2296 -0.112389,0.48411 -0.0048,0.23584 0.116145,0.41901 0.128034,0.18146 0.481586,0.38558 0.205761,0.1188 0.463226,0.18985 0.259749,0.0666 0.381691,0.0829 l 0.04468,0.0258 z m 4.874671,2.87397 -0.836794,-0.48312 0.307442,-0.53251 q -0.155966,0.0114 -0.428473,0.0389 -0.265411,0.0258 -0.49093,0.003 -0.269742,-0.0186 -0.58163,-0.10912 -0.313943,-0.0859 -0.681014,-0.29786 -0.675942,-0.39026 -0.887302,-1.10895 -0.21159,-0.71882 0.188852,-1.41241 0.328079,-0.56825 0.771195,-0.77801 0.450442,-0.21135 1.018575,-0.15188 0.572945,0.0623 1.253959,0.36011 0.681375,0.29777 1.436287,0.68565 l 0.07474,-0.12946 q 0.165362,-0.28641 0.17073,-0.53383 0.01008,-0.24501 -0.115762,-0.46095 -0.119193,-0.20629 -0.349589,-0.38667 -0.229673,-0.18056 -0.502799,-0.33825 -0.331098,-0.19116 -0.789992,-0.33665 -0.456478,-0.1502 -0.986102,-0.2351 l -0.04491,-0.0259 0.493442,-0.85466 q 0.285211,0.0748 0.797014,0.2631 0.511935,0.18803 0.964014,0.44903 0.527923,0.3048 0.865856,0.61906 0.344438,0.31251 0.509412,0.68821 0.163038,0.36848 0.122183,0.78055 -0.04086,0.41207 -0.319855,0.89531 z m -0.126264,-1.7138 0.803529,-1.39175 q -0.397775,-0.20002 -0.947273,-0.4574 -0.545012,-0.25508 -0.89838,-0.34576 -0.422019,-0.10617 -0.772351,-0.0164 -0.347722,0.0858 -0.567323,0.46618 -0.248044,0.42962 -0.115038,0.79879 0.135423,0.36445 0.668157,0.67202 0.442914,0.25572 0.908144,0.29763 0.467515,0.0374 0.920535,-0.0233 z m 2.596547,3.14002 -0.841376,-0.48577 4.020293,-6.96335 0.841376,0.48577 z m 5.938104,-4.35269 -0.948611,-0.54768 0.503761,-0.87254 0.94861,0.54768 z m -3.422911,5.80483 -0.841377,-0.48576 2.886039,-4.99877 0.841376,0.48577 z m 4.286066,2.41499 q -0.273268,-0.0744 -0.578384,-0.19675 -0.300763,-0.11988 -0.520044,-0.24648 -0.765304,-0.44185 -0.925812,-1.08352 -0.160737,-0.64181 0.363793,-1.55032 l 1.534564,-2.65794 -0.56825,-0.32808 0.408247,-0.70711 0.56825,0.32808 0.829458,-1.43666 0.841376,0.48577 -0.829458,1.43666 1.73637,1.0025 -0.408247,0.7071 -1.73637,-1.00249 -1.314962,2.27758 q -0.227539,0.39411 -0.338782,0.62806 -0.1085,0.22973 -0.112389,0.48411 -0.0048,0.23584 0.116146,0.41901 0.128033,0.18146 0.481585,0.38558 0.205762,0.1188 0.463226,0.18985 0.259749,0.0666 0.381692,0.0829 l 0.04468,0.0258 z m 8.15436,-1.89752 -6.868126,5.15815 -0.899577,-0.51937 2.134842,-1.54821 0.755078,-5.90676 0.912866,0.52704 -0.604071,4.59165 3.687514,-2.81142 z"
     aria-label="Horizontality"
     style="font-size:40px;line-height:1.25;white-space:pre;shape-inside:url(#d);fill:#ffffff;stroke-width:0.26458"
     id="path126" />
  <path
     d="m 131.7531,187.61583 -0.94403,0.54503 -1.72583,-1.48006 -2.88203,1.66394 0.41885,2.23465 -0.89958,0.51937 -1.42165,-8.06407 1.18141,-0.68209 z m -3.38219,-1.53806 -3.05659,-2.59705 0.716,3.94839 z m 8.42586,-1.37391 -0.84137,0.48577 -0.32041,-0.55496 q -0.23124,0.58108 -0.51744,0.98492 -0.28598,0.40372 -0.75593,0.67504 -0.78753,0.45468 -1.50258,0.229 -0.71756,-0.23004 -1.25492,-1.16078 l -1.87323,-3.24452 0.84138,-0.48577 1.64317,2.84606 q 0.2196,0.38036 0.41304,0.63285 0.19079,0.24791 0.41831,0.37317 0.23439,0.12711 0.47859,0.10558 0.24406,-0.0218 0.61113,-0.23369 0.32652,-0.18851 0.6133,-0.58078 0.29137,-0.39491 0.47429,-0.85277 l -2.15487,-3.73235 0.84137,-0.48577 z m 4.22577,-2.49932 q -0.20104,0.19947 -0.45982,0.40265 -0.25397,0.2004 -0.47347,0.32713 -0.76531,0.44185 -1.40127,0.26002 -0.63596,-0.18184 -1.16049,-1.09035 l -1.53482,-2.6584 -0.56825,0.32808 -0.40825,-0.7071 0.56825,-0.32808 -0.82946,-1.43667 0.84138,-0.48577 0.82946,1.43667 1.73637,-1.0025 0.40824,0.70711 -1.73637,1.00249 1.31523,2.27804 q 0.22741,0.39388 0.37439,0.6072 0.14448,0.20896 0.36306,0.33939 0.20185,0.12206 0.42072,0.10905 0.22116,-0.0202 0.57472,-0.22428 0.20599,-0.11893 0.39602,-0.30624 0.18775,-0.1918 0.26263,-0.28911 l 0.0449,-0.0259 z m 3.86021,-5.49888 q 0.70537,1.22173 0.48717,2.29052 -0.21843,1.06892 -1.27015,1.67613 -1.06043,0.61223 -2.09535,0.26694 -1.03035,-0.34793 -1.73572,-1.56967 -0.70537,-1.22174 -0.49152,-2.28801 0.21592,-1.07327 1.27635,-1.68551 1.05172,-0.60721 2.08916,-0.25757 1.03469,0.34543 1.74006,1.56717 z m -0.86818,0.50124 q -0.56065,-0.97106 -1.21233,-1.22141 -0.65421,-0.25471 -1.33015,0.13555 -0.68465,0.39528 -0.79117,1.08919 -0.10445,0.6869 0.45633,1.6582 0.54252,0.93967 1.20453,1.2079 0.65949,0.26387 1.33956,-0.12877 0.67136,-0.38761 0.77523,-1.0861 0.10581,-0.70572 -0.44187,-1.65433 z m 7.79225,-1.16909 -0.84138,0.48576 -1.6433,-2.84629 q -0.19897,-0.34461 -0.41246,-0.62126 -0.21601,-0.28101 -0.42141,-0.38911 -0.22052,-0.1232 -0.48246,-0.0911 -0.26458,0.0275 -0.60003,0.22117 -0.34462,0.19896 -0.6226,0.58584 -0.27762,0.38697 -0.4697,0.85012 l 2.15487,3.73235 -0.84138,0.48577 -2.88617,-4.99899 0.84138,-0.48577 0.32041,0.55496 q 0.20513,-0.55379 0.51986,-0.98021 0.31472,-0.42642 0.75786,-0.68227 0.80999,-0.46765 1.51668,-0.22522 0.70691,0.24229 1.2366,1.15974 z m 4.43864,-5.89242 q 0.70537,1.22174 0.48694,2.29066 -0.21821,1.06878 -1.26993,1.676 -1.06065,0.61237 -2.09535,0.26694 -1.03034,-0.34793 -1.73571,-1.56967 -0.70537,-1.22174 -0.49152,-2.28801 0.21569,-1.07314 1.27634,-1.68551 1.05172,-0.60721 2.08893,-0.25743 1.03493,0.34529 1.7403,1.56702 z m -0.86842,0.50138 q -0.56064,-0.97106 -1.21233,-1.22141 -0.6542,-0.25471 -1.32991,0.13542 -0.68465,0.39528 -0.79117,1.08919 -0.10445,0.6869 0.45632,1.6582 0.54253,0.93967 1.20453,1.2079 0.65949,0.26386 1.33956,-0.12877 0.67136,-0.38761 0.77524,-1.0861 0.10581,-0.70572 -0.44187,-1.65433 z m 10.90709,-2.96744 -0.84115,0.48563 -1.64331,-2.84629 q -0.18599,-0.32216 -0.39055,-0.60397 -0.19985,-0.28423 -0.39747,-0.40904 -0.21401,-0.13307 -0.46336,-0.12048 -0.24923,0.0128 -0.61149,0.22198 -0.35355,0.20412 -0.60378,0.5872 -0.25275,0.37872 -0.44874,0.85574 0.0728,0.0954 0.16179,0.22891 0.0867,0.12898 0.16421,0.26325 l 1.84743,3.19984 -0.84161,0.4859 -1.64331,-2.84629 q -0.19115,-0.33109 -0.39284,-0.60845 -0.19997,-0.28446 -0.39747,-0.40904 -0.214,-0.13308 -0.46071,-0.1159 -0.24936,0.0126 -0.61185,0.22188 -0.34438,0.19883 -0.59542,0.57046 -0.24646,0.36898 -0.43855,0.83213 l 2.15488,3.73235 -0.84138,0.48577 -2.88617,-4.99899 0.84138,-0.48577 0.3204,0.55496 q 0.2056,-0.55406 0.4887,-0.96222 0.28792,-0.41094 0.73106,-0.66679 0.51005,-0.29448 0.98779,-0.28404 0.48199,0.008 0.87596,0.28798 0.26224,-0.72423 0.57445,-1.15501 0.30956,-0.43535 0.78845,-0.71184 0.82328,-0.47532 1.50212,-0.1991 0.68046,0.26949 1.19731,1.16471 z m 2.96749,-8.37861 1.03293,8.52741 -0.89958,0.51937 -0.27314,-2.62306 -4.73822,-3.6074 0.91309,-0.52717 3.67436,2.81932 -0.59092,-4.59955 z"
     aria-label="Autonomy"
     style="font-size:40px;line-height:1.25;white-space:pre;shape-inside:url(#e);fill:#ffffff;stroke-width:0.26458"
     id="path128" />
  <path
     d="m -284.572,442.126 q 0,3.965 -1.739,7.188 -1.718,3.222 -4.59,5 -1.992,1.23 -4.453,1.777 -2.44,0.547 -6.445,0.547 h -7.344 v -29.082 h 7.266 q 4.258,0 6.758,0.625 2.52,0.605 4.258,1.68 2.968,1.855 4.629,4.94 1.66,3.087 1.66,7.325 z m -4.043,-0.059 q 0,-3.418 -1.192,-5.761 -1.191,-2.344 -3.554,-3.692 -1.72,-0.976 -3.653,-1.347 -1.933,-0.391 -4.629,-0.391 h -3.632 v 22.441 h 3.632 q 2.793,0 4.864,-0.41 2.09,-0.41 3.828,-1.523 2.168,-1.387 3.242,-3.653 1.094,-2.265 1.094,-5.664 z m 28.261,4.043 h -16.074 q 0,2.012 0.606,3.516 0.605,1.484 1.66,2.441 1.016,0.938 2.402,1.407 1.406,0.468 3.086,0.468 2.227,0 4.473,-0.878 2.265,-0.899 3.222,-1.758 h 0.196 v 4.004 q -1.856,0.78 -3.79,1.308 -1.933,0.528 -4.062,0.528 -5.43,0 -8.476,-2.93 -3.047,-2.95 -3.047,-8.36 0,-5.351 2.91,-8.496 2.93,-3.144 7.695,-3.144 4.414,0 6.797,2.578 2.402,2.578 2.402,7.324 z m -3.574,-2.812 q -0.02,-2.89 -1.465,-4.473 -1.425,-1.582 -4.355,-1.582 -2.95,0 -4.707,1.738 -1.738,1.739 -1.973,4.317 z m 40.977,13.34 h -3.672 v -12.422 q 0,-1.406 -0.137,-2.715 -0.117,-1.309 -0.527,-2.09 -0.45,-0.84 -1.29,-1.27 -0.839,-0.429 -2.421,-0.429 -1.543,0 -3.086,0.781 -1.543,0.762 -3.086,1.953 0.059,0.45 0.098,1.055 0.039,0.586 0.039,1.172 v 13.965 h -3.672 v -12.422 q 0,-1.445 -0.137,-2.735 -0.117,-1.308 -0.527,-2.09 -0.45,-0.84 -1.29,-1.25 -0.84,-0.429 -2.421,-0.429 -1.504,0 -3.027,0.742 -1.504,0.742 -3.008,1.895 v 16.289 h -3.672 V 434.82 h 3.672 v 2.422 q 1.719,-1.426 3.418,-2.226 1.718,-0.801 3.652,-0.801 2.227,0 3.77,0.937 1.562,0.938 2.324,2.598 2.226,-1.875 4.062,-2.695 1.836,-0.84 3.926,-0.84 3.594,0 5.293,2.187 1.719,2.168 1.719,6.075 z m 25.664,-10.898 q 0,5.331 -2.734,8.417 -2.735,3.086 -7.325,3.086 -4.629,0 -7.363,-3.086 -2.715,-3.086 -2.715,-8.418 0,-5.332 2.715,-8.418 2.734,-3.105 7.363,-3.105 4.59,0 7.325,3.105 2.734,3.086 2.734,8.418 z m -3.79,0 q 0,-4.239 -1.66,-6.29 -1.66,-2.07 -4.609,-2.07 -2.988,0 -4.648,2.07 -1.64,2.051 -1.64,6.29 0,4.1 1.66,6.23 1.66,2.11 4.628,2.11 2.93,0 4.59,-2.09 1.68,-2.11 1.68,-6.25 z m 25.607,9.53 q -1.837,0.88 -3.497,1.368 -1.64,0.488 -3.496,0.488 -2.363,0 -4.336,-0.684 -1.972,-0.703 -3.379,-2.109 -1.426,-1.406 -2.207,-3.555 -0.781,-2.148 -0.781,-5.02 0,-5.35 2.93,-8.398 2.949,-3.046 7.773,-3.046 1.875,0 3.672,0.527 1.816,0.527 3.32,1.289 v 4.082 h -0.195 q -1.68,-1.309 -3.477,-2.012 -1.777,-0.703 -3.476,-0.703 -3.125,0 -4.942,2.11 -1.796,2.09 -1.796,6.152 0,3.945 1.757,6.074 1.778,2.11 4.98,2.11 1.114,0 2.266,-0.294 1.153,-0.293 2.07,-0.761 0.802,-0.41 1.505,-0.86 0.703,-0.468 1.113,-0.8 h 0.195 z m 18.32,-16.445 h -0.196 q -0.82,-0.195 -1.601,-0.273 -0.762,-0.098 -1.817,-0.098 -1.699,0 -3.28,0.762 -1.583,0.742 -3.048,1.933 v 15.489 h -3.672 V 434.82 h 3.672 v 3.223 q 2.188,-1.758 3.848,-2.48 1.68,-0.743 3.418,-0.743 0.957,0 1.387,0.059 0.43,0.039 1.289,0.176 z m 19.707,17.813 h -3.653 v -2.324 q -0.488,0.332 -1.328,0.937 -0.82,0.586 -1.601,0.938 -0.918,0.449 -2.11,0.742 -1.191,0.312 -2.793,0.312 -2.949,0 -5,-1.953 -2.05,-1.953 -2.05,-4.98 0,-2.48 1.054,-4.004 1.074,-1.543 3.047,-2.422 1.992,-0.88 4.785,-1.192 2.793,-0.312 5.996,-0.468 v -0.567 q 0,-1.25 -0.449,-2.07 -0.43,-0.82 -1.25,-1.29 -0.781,-0.448 -1.875,-0.605 -1.094,-0.156 -2.285,-0.156 -1.445,0 -3.223,0.39 -1.777,0.372 -3.672,1.095 h -0.195 v -3.73 q 1.074,-0.294 3.106,-0.645 2.03,-0.352 4.003,-0.352 2.305,0 4.004,0.39 1.72,0.372 2.97,1.29 1.23,0.898 1.874,2.324 0.645,1.426 0.645,3.535 z m -3.653,-5.371 v -6.075 q -1.68,0.098 -3.965,0.293 -2.265,0.196 -3.593,0.567 -1.582,0.449 -2.559,1.406 -0.976,0.938 -0.976,2.598 0,1.875 1.132,2.832 1.133,0.937 3.457,0.937 1.934,0 3.536,-0.742 1.601,-0.762 2.968,-1.816 z m 26.856,4.003 q -1.836,0.88 -3.496,1.368 -1.64,0.488 -3.496,0.488 -2.364,0 -4.336,-0.684 -1.973,-0.703 -3.38,-2.109 -1.425,-1.406 -2.206,-3.555 -0.782,-2.148 -0.782,-5.02 0,-5.35 2.93,-8.398 2.95,-3.046 7.774,-3.046 1.875,0 3.671,0.527 1.817,0.527 3.32,1.289 v 4.082 h -0.195 q -1.68,-1.309 -3.476,-2.012 -1.777,-0.703 -3.477,-0.703 -3.125,0 -4.941,2.11 -1.797,2.09 -1.797,6.152 0,3.945 1.758,6.074 1.777,2.11 4.98,2.11 1.114,0 2.266,-0.294 1.152,-0.293 2.07,-0.761 0.801,-0.41 1.504,-0.86 0.703,-0.468 1.113,-0.8 h 0.196 z m 23.574,-20.449 -12.734,29.864 h -3.926 l 4.062,-9.102 -8.691,-20.762 h 3.984 l 6.7,16.172 6.757,-16.172 z"
     style="font-size:40px;line-height:1.25;white-space:pre;shape-inside:url(#f);fill:#ffffff"
     aria-label="Democracy"
     transform="matrix(0,-0.26458,0.26458,0,-103.6741,47.830836)"
     id="path130" />
</svg>
