<svg width="64" height="64" xml:space="preserve" xmlns="http://www.w3.org/2000/svg"><path style="fill:#ff4000;fill-opacity:1;stroke-width:32.0013;stroke-linecap:round;stroke-linejoin:round;paint-order:stroke fill markers" d="M32 0A32 32 0 0 0 0 32a32 32 0 0 0 32 32 32 32 0 0 0 32-32A32 32 0 0 0 32 0z"/><path style="fill:#fff;fill-opacity:1;stroke-width:32.0013;stroke-linecap:round;stroke-linejoin:round;paint-order:stroke fill markers" d="M34.417969 12.767578c-.460532-.008663-.881795.305786-.986328.779297v.015625l-2.361329 11.103516c-4.454391.071822-8.789809 1.440082-12.480468 3.9375-1.87733-1.765687-4.835878-1.67812-6.601563.207031-1.765686 1.87733-1.678121 4.835876.207031 6.601562.366222.342044.786528.636818 1.25586.84375-.032.469333-.032.938872 0 1.408203 0 7.166564 8.351921 12.998047 18.652344 12.998047 10.300423 0 18.652343-5.823661 18.652343-12.998047.032-.469331.032-.93887 0-1.408203 1.607109-.803554 2.617938-2.458174 2.585938-4.255859-.095289-2.577061-2.260819-4.589423-4.845703-4.501953-1.145598.039822-2.233526.509677-3.060547 1.296875-3.643014-2.481773-7.923341-3.84221-12.322266-3.9375L35.189453 14.875l6.849609 1.439453c.190577 1.757863 1.765574 3.031133 3.523438 2.839844 1.757862-.190577 3.029178-1.765574 2.837891-3.523438-.191289-1.757863-1.765575-3.031132-3.523438-2.839843-1.010486.103111-1.915394.69103-2.416015 1.566406l-7.84375-1.566406c-.066578-.01493-.133429-.022238-.199219-.023438zM24.546875 32c1.765685 0 3.205078 1.439393 3.205078 3.205078s-1.439393 3.207031-3.205078 3.207031c-1.773508-.016356-3.205078-1.441346-3.205078-3.207031C21.341797 33.439393 22.78119 32 24.546875 32zm14.810547.111328c1.765685 0 3.207031 1.439393 3.207031 3.205078.071111 1.766396-1.304627 3.252399-3.070312 3.324219h-.160157l.023438-.117187c-1.765685-.000001-3.205078-1.441347-3.205078-3.207032s1.439393-3.205078 3.205078-3.205078zM24.78125 42.589844c.193956 0 .389536.064112.552734.195312 1.924974 1.407998 4.27243 2.125316 6.658204 2.013672 2.386484.127289 4.741013-.557577 6.689453-1.949219.349865-.342038.920916-.334241 1.263671.015625.342039.349866.334241.923582-.015624 1.265625v-.128906c-2.274841 1.710219-5.058255 2.585552-7.90625 2.466797-2.847995.119467-5.6307-.756578-7.90625-2.466797-.302221-.366221-.247082-.912622.11914-1.214844.158933-.131197.350967-.197265.544922-.197265z"/></svg>