<svg width="64" height="64" viewBox="126.444 2.281 15.0784 15.0784" xmlns="http://www.w3.org/2000/svg"><circle cx="133.9832" cy="9.8202" r="7.5391998" fill="#2daae1" style="stroke-width:.0256"/><path d="M139.10839 7.2245599c-.34122.1514138-.70773.2537729-1.09306.2997817.39326-.2354972.69455-.6086767.8368-1.0528223a3.8020491 3.8020491 0 0 1-1.20878.4618318c-.34697-.3698388-.84174-.6007424-1.38913-.6007424-1.05069 0-1.9028.8517641-1.9028 1.9030634 0 .1489574.0168.2942793.049.433804-1.58166-.07949-2.98391-.8371238-3.92251-1.9883503-.16389.281162-.2577.6080625-.2577.9568498 0 .6601633.33601 1.24263.84658 1.5838269a1.8944414 1.8944414 0 0 1-.86213-.237929v.024048c0 .9221406.65589 1.6910495 1.52655 1.8659225-.15994.04382-.32779.06672-.50143.06672-.12277 0-.24189-.01162-.35825-.03351.24218.755816.94501 1.305981 1.77754 1.32153-.65132.510567-1.47201.814918-2.36337.814918-.15353 0-.30526-.0091-.45422-.02712.84233.540118 1.84247.855424 2.91722.855424 3.50031 0 5.41464-2.899855 5.41464-5.4146408 0-.082561-.002-.1645065-.006-.246158a3.8775841 3.8775841 0 0 0 .95081-.9864497z" fill="#fff" style="stroke-width:.0245642"/></svg>